<svg id="Layer_1" data-name="Layer 1" xmlns="http://www.w3.org/2000/svg" xmlns:xlink="http://www.w3.org/1999/xlink" viewBox="0 0 894 894"><defs><style>.cls-1{fill:url(#New_Gradient_Swatch_1);}.cls-2,.cls-3{fill:#32ab4f;}.cls-3{stroke:#32ab4f;stroke-miterlimit:10;}</style><linearGradient id="New_Gradient_Swatch_1" y1="447" x2="894" y2="447" gradientUnits="userSpaceOnUse"><stop offset="0" stop-color="#be1622"/><stop offset="1" stop-color="#e94e1b"/></linearGradient></defs><path class="cls-1" d="M831.16,41A21.87,21.87,0,0,1,853,62.84V831.16A21.87,21.87,0,0,1,831.16,853H62.84A21.87,21.87,0,0,1,41,831.16V62.84A21.87,21.87,0,0,1,62.84,41H831.16m0-41H62.84A62.83,62.83,0,0,0,0,62.84V831.16A62.83,62.83,0,0,0,62.84,894H831.16A62.83,62.83,0,0,0,894,831.16V62.84A62.83,62.83,0,0,0,831.16,0Z"/><path class="cls-2" d="M787.8,121c5.3,0,11.2,6.6,11.2,16.06V289.12A20.74,20.74,0,0,1,784.64,309H129.36A20.74,20.74,0,0,1,115,289.12V137.06c0-9.46,5.9-16.06,11.2-16.06H787.8m0-30H126.2C103.45,91,85,111.62,85,137.06V289.12c0,25.44,18.45,46.06,41.2,49.88H787.8c22.75-3.82,41.2-24.44,41.2-49.88V137.06C829,111.62,810.55,91,787.8,91Z"/><rect class="cls-3" x="140.51" y="233.85" width="105.87" height="15.76" rx="7.88" transform="translate(501.17 275.88) rotate(135)"/><rect class="cls-3" x="140.51" y="169.85" width="105.87" height="15.76" rx="7.88" transform="translate(182.34 -84.73) rotate(45)"/><path class="cls-2" d="M243,422a23,23,0,0,1,23,23v92a23,23,0,0,1-23,23H149a23,23,0,0,1-23-23V445a23,23,0,0,1,23-23h94m0-30H149a53,53,0,0,0-53,53v92a53,53,0,0,0,53,53h94a53,53,0,0,0,53-53V445a53,53,0,0,0-53-53Z"/><path class="cls-2" d="M536,646a23,23,0,0,1,23,23v92a23,23,0,0,1-23,23H149a23,23,0,0,1-23-23V669a23,23,0,0,1,23-23H536m0-30H149a53,53,0,0,0-53,53v92a53,53,0,0,0,53,53H536a53,53,0,0,0,53-53V669a53,53,0,0,0-53-53Z"/><path class="cls-2" d="M765,424a23,23,0,0,1,23,23v92a23,23,0,0,1-23,23H375a23,23,0,0,1-23-23V447a23,23,0,0,1,23-23H765m0-30H375a53,53,0,0,0-53,53v92a53,53,0,0,0,53,53H765a53,53,0,0,0,53-53V447a53,53,0,0,0-53-53Z"/><path class="cls-2" d="M765,646a23,23,0,0,1,23,23v92a23,23,0,0,1-23,23H667a23,23,0,0,1-23-23V669a23,23,0,0,1,23-23h98m0-30H667a53,53,0,0,0-53,53v92a53,53,0,0,0,53,53h98a53,53,0,0,0,53-53V669a53,53,0,0,0-53-53Z"/></svg>