<?xml version="1.0" encoding="UTF-8"?><svg id="a" xmlns="http://www.w3.org/2000/svg" xmlns:xlink="http://www.w3.org/1999/xlink" viewBox="0 0 742.49 601.5"><defs><style>.c`{fill:url(#u);}.ca{fill:url(#t);}.cb{fill:url(#v);}.cc{fill:url(#e);}.cd{fill:url(#d);}.ce{fill:url(#g);}.cf{fill:url(#f);}.cg{fill:url(#p);}.ch{fill:url(#o);}.ci{fill:url(#s);}.cj{fill:url(#q);}.ck{fill:url(#r);}.cl{fill:url(#i);}.cm{fill:url(#h);}.cn{fill:url(#k);}.co{fill:url(#j);}.cp{fill:url(#m);}.cq{fill:url(#l);}.cr{fill:url(#n);}.cs{fill:url(#c);}.ct{fill:url(#b);}.cu{fill:url(#x);}.cv{fill:url(#w);}.cw{fill:url(#y);}.cx{fill:url(#aa);}.cy{fill:url(#ag);}.d`{fill:url(#ab);}.da{fill:url(#ah);}.db{fill:url(#ai);}.dc{fill:url(#ad);}.dd{fill:url(#ao);}.de{fill:url(#aj);}.df{fill:url(#ae);}.dg{fill:url(#ap);}.dh{fill:url(#af);}.di{fill:url(#a`);}.dj{fill:url(#as);}.dk{fill:url(#aq);}.dl{fill:url(#ar);}.dm{fill:url(#al);}.dn{fill:url(#ax);}.do{fill:url(#aw);}.dp{fill:url(#am);}.dq{fill:url(#ac);}.dr{fill:url(#an);}.ds{fill:url(#at);}.dt{fill:url(#ay);}.du{fill:url(#au);}.dv{fill:url(#ak);}.dw{fill:url(#av);}.dx{fill:url(#be);}.dy{fill:url(#bg);}.e`{fill:url(#bf);}.ea{fill:url(#bm);}.eb{fill:url(#bd);}.ec{fill:url(#bo);}.ed{fill:url(#bn);}.ee{fill:url(#ba);}.ef{fill:url(#bh);}.eg{fill:url(#bc);}.eh{fill:url(#bb);}.ei{fill:url(#b`);}.ej{fill:url(#by);}.ek{fill:url(#bu);}.el{fill:url(#bl);}.em{fill:url(#bw);}.en{fill:url(#bv);}.eo{fill:url(#bi);}.ep{fill:url(#bp);}.eq{fill:url(#bk);}.er{fill:url(#bj);}.es{fill:url(#bt);}.et{fill:url(#bq);}.eu{fill:url(#bx);}.ev{fill:url(#bs);}.ew{fill:url(#br);}.ex{fill:#e94e1b;}.ey{fill:#32ab4f;}.f`{stroke:#c41e21;}.f`,.fa,.fb,.fc,.fd,.fe,.ff,.fg,.fh,.fi,.fj,.fk,.fl,.fm,.fn,.fo,.fp,.fq,.fr,.fs,.ft,.fu,.fv,.fw,.fx,.fy,.g`,.ga,.gb,.gc,.gd,.ge,.gf,.gg,.gh,.gi,.gj,.gk,.gl,.gm,.gn,.go,.gp,.gq,.gr,.gs,.gt,.gu,.gv,.gw,.gx,.gy,.h`,.ha,.hb,.hc,.hd,.he,.hf,.hg,.hh,.hi,.hj,.hk,.hl,.hm,.hn,.ho,.hp{fill:none;stroke-miterlimit:10;}.fa{stroke:#c41d21;}.fb{stroke:#e94e1b;}.fc{stroke:#e74c1b;}.fd{stroke:#e74b1b;}.fe{stroke:#e84d1b;}.ff{stroke:#e5491c;}.fg{stroke:#e64a1c;}.fh{stroke:#e64a1b;}.fi{stroke:#e4481c;}.fj{stroke:#c82320;}.fk{stroke:#d3311f;}.fl{stroke:#d4331e;}.fm{stroke:#c92420;}.fn{stroke:#c62121;}.fo{stroke:#e4471c;}.fp{stroke:#c62021;}.fq{stroke:#ce2b1f;}.fr{stroke:#cd2920;}.fs{stroke:#cd2a20;}.ft{stroke:#d4321e;}.fu{stroke:#c51f21;}.fv{stroke:#c52021;}.fw{stroke:#c01822;}.fx{stroke:#c01922;}.fy{stroke:#c21b21;}.g`{stroke:#be1622;}.ga{stroke:#c11a21;}.gb{stroke:#c11a22;}.gc{stroke:#bf1722;}.gd{stroke:#da3b1d;}.ge{stroke:#d9391e;}.gf{stroke:#da3a1d;}.gg{stroke:#d02d1f;}.gh{stroke:#d02e1f;}.gi{stroke:#cf2c1f;}.gj{stroke:#d6351e;}.gk{stroke:#d6361e;}.gl{stroke:#d12e1f;}.gm{stroke:#d12f1f;}.gn{stroke:#e1431c;}.go{stroke:#e0421c;}.gp{stroke:#dd3e1d;}.gq{stroke:#e3461c;}.gr{stroke:#d5331e;}.gs{stroke:#dd3f1d;}.gt{stroke:#ca2520;}.gu{stroke:#d5341e;}.gv{stroke:#dc3d1d;}.gw{stroke:#db3c1d;}.gx{stroke:#df411d;}.gy{stroke:#cc2820;}.h`{stroke:#c72221;}.ha{stroke:#d2301f;}.hb{stroke:#d2311f;}.hc{stroke:#d8381e;}.hd{stroke:#e2441c;}.he{stroke:#e2451c;}.hf{stroke:#ca2620;}.hg{stroke:#e3471c;}.hh{stroke:#e1441c;}.hi{stroke:#d7361e;}.hj{stroke:#d7371e;}.hk{stroke:#de401d;}.hl{stroke:#de3f1d;}.hm{stroke:#c92520;}.hn{stroke:#c31d21;}.ho{stroke:#c31c21;}.hp{stroke:#cb2720;}</style><linearGradient id="b" x1=".5" y1="385.77" x2="741.99" y2="385.77" gradientTransform="matrix(1, 0, 0, 1, 0, 0)" gradientUnits="userSpaceOnUse"><stop offset="0" stop-color="#e84d1b"/><stop offset="1" stop-color="#e94e1b"/></linearGradient><linearGradient id="c" x1=".5" y1="383.47" y2="383.47" xlink:href="#b"/><linearGradient id="d" x1=".5" y1="381.17" x2="741.99" y2="381.17" gradientTransform="matrix(1, 0, 0, 1, 0, 0)" gradientUnits="userSpaceOnUse"><stop offset="0" stop-color="#e74c1b"/><stop offset="1" stop-color="#e94e1b"/></linearGradient><linearGradient id="e" x1=".5" y1="378.87" x2="741.99" y2="378.87" gradientTransform="matrix(1, 0, 0, 1, 0, 0)" gradientUnits="userSpaceOnUse"><stop offset="0" stop-color="#e74b1b"/><stop offset="1" stop-color="#e94e1b"/></linearGradient><linearGradient id="f" x1=".5" y1="376.58" x2="741.99" y2="376.58" gradientTransform="matrix(1, 0, 0, 1, 0, 0)" gradientUnits="userSpaceOnUse"><stop offset="0" stop-color="#e64a1b"/><stop offset="1" stop-color="#e94e1b"/></linearGradient><linearGradient id="g" x1=".5" y1="374.28" x2="741.99" y2="374.28" gradientTransform="matrix(1, 0, 0, 1, 0, 0)" gradientUnits="userSpaceOnUse"><stop offset="0" stop-color="#e64a1c"/><stop offset="1" stop-color="#e94e1b"/></linearGradient><linearGradient id="h" x1=".5" y1="371.98" x2="741.99" y2="371.98" gradientTransform="matrix(1, 0, 0, 1, 0, 0)" gradientUnits="userSpaceOnUse"><stop offset="0" stop-color="#e5491c"/><stop offset="1" stop-color="#e94e1b"/></linearGradient><linearGradient id="i" x1=".5" y1="369.68" x2="741.99" y2="369.68" gradientTransform="matrix(1, 0, 0, 1, 0, 0)" gradientUnits="userSpaceOnUse"><stop offset="0" stop-color="#e4481c"/><stop offset="1" stop-color="#e94e1b"/></linearGradient><linearGradient id="j" x1=".5" y1="367.39" x2="741.99" y2="367.39" gradientTransform="matrix(1, 0, 0, 1, 0, 0)" gradientUnits="userSpaceOnUse"><stop offset="0" stop-color="#e4471c"/><stop offset="1" stop-color="#e94e1b"/></linearGradient><linearGradient id="k" x1=".5" y1="365.09" x2="741.99" y2="365.09" gradientTransform="matrix(1, 0, 0, 1, 0, 0)" gradientUnits="userSpaceOnUse"><stop offset="0" stop-color="#e3471c"/><stop offset="1" stop-color="#e94e1b"/></linearGradient><linearGradient id="l" x1=".5" y1="362.79" x2="741.99" y2="362.79" gradientTransform="matrix(1, 0, 0, 1, 0, 0)" gradientUnits="userSpaceOnUse"><stop offset="0" stop-color="#e3461c"/><stop offset="1" stop-color="#e94e1b"/></linearGradient><linearGradient id="m" x1=".5" y1="360.49" x2="741.99" y2="360.49" gradientTransform="matrix(1, 0, 0, 1, 0, 0)" gradientUnits="userSpaceOnUse"><stop offset="0" stop-color="#e2451c"/><stop offset="1" stop-color="#e94e1b"/></linearGradient><linearGradient id="n" x1=".5" y1="358.19" x2="741.99" y2="358.19" gradientTransform="matrix(1, 0, 0, 1, 0, 0)" gradientUnits="userSpaceOnUse"><stop offset="0" stop-color="#e2441c"/><stop offset="1" stop-color="#e94e1b"/></linearGradient><linearGradient id="o" x1=".5" y1="355.9" x2="741.99" y2="355.9" gradientTransform="matrix(1, 0, 0, 1, 0, 0)" gradientUnits="userSpaceOnUse"><stop offset="0" stop-color="#e1441c"/><stop offset="1" stop-color="#e94e1b"/></linearGradient><linearGradient id="p" x1=".5" y1="353.6" x2="741.99" y2="353.6" gradientTransform="matrix(1, 0, 0, 1, 0, 0)" gradientUnits="userSpaceOnUse"><stop offset="0" stop-color="#e1431c"/><stop offset="1" stop-color="#e94e1b"/></linearGradient><linearGradient id="q" x1=".5" y1="351.3" x2="741.99" y2="351.3" gradientTransform="matrix(1, 0, 0, 1, 0, 0)" gradientUnits="userSpaceOnUse"><stop offset="0" stop-color="#e0421c"/><stop offset="1" stop-color="#e94e1b"/></linearGradient><linearGradient id="r" x1=".5" y1="349" x2="741.99" y2="349" gradientTransform="matrix(1, 0, 0, 1, 0, 0)" gradientUnits="userSpaceOnUse"><stop offset="0" stop-color="#df411d"/><stop offset="1" stop-color="#e94e1b"/></linearGradient><linearGradient id="s" x1=".5" y1="346.7" y2="346.7" xlink:href="#r"/><linearGradient id="t" x1=".5" y1="344.41" x2="741.99" y2="344.41" gradientTransform="matrix(1, 0, 0, 1, 0, 0)" gradientUnits="userSpaceOnUse"><stop offset="0" stop-color="#de401d"/><stop offset="1" stop-color="#e94e1b"/></linearGradient><linearGradient id="u" x1=".5" y1="342.11" x2="741.99" y2="342.11" gradientTransform="matrix(1, 0, 0, 1, 0, 0)" gradientUnits="userSpaceOnUse"><stop offset="0" stop-color="#de3f1d"/><stop offset="1" stop-color="#e94e1b"/></linearGradient><linearGradient id="v" x1=".5" y1="339.81" x2="741.99" y2="339.81" gradientTransform="matrix(1, 0, 0, 1, 0, 0)" gradientUnits="userSpaceOnUse"><stop offset="0" stop-color="#dd3f1d"/><stop offset="1" stop-color="#e94e1b"/></linearGradient><linearGradient id="w" x1=".5" y1="337.51" x2="741.99" y2="337.51" gradientTransform="matrix(1, 0, 0, 1, 0, 0)" gradientUnits="userSpaceOnUse"><stop offset="0" stop-color="#dd3e1d"/><stop offset="1" stop-color="#e94e1b"/></linearGradient><linearGradient id="x" x1=".5" y1="335.22" x2="741.99" y2="335.22" gradientTransform="matrix(1, 0, 0, 1, 0, 0)" gradientUnits="userSpaceOnUse"><stop offset="0" stop-color="#dc3d1d"/><stop offset="1" stop-color="#e94e1b"/></linearGradient><linearGradient id="y" x1=".5" y1="332.92" x2="741.99" y2="332.92" gradientTransform="matrix(1, 0, 0, 1, 0, 0)" gradientUnits="userSpaceOnUse"><stop offset="0" stop-color="#db3c1d"/><stop offset="1" stop-color="#e94e1b"/></linearGradient><linearGradient id="a`" y1="330.62" y2="330.62" xlink:href="#y"/><linearGradient id="aa" x1=".5" y1="328.32" x2="741.99" y2="328.32" gradientTransform="matrix(1, 0, 0, 1, 0, 0)" gradientUnits="userSpaceOnUse"><stop offset="0" stop-color="#da3b1d"/><stop offset="1" stop-color="#e94e1b"/></linearGradient><linearGradient id="ab" x1=".5" y1="326.02" x2="741.99" y2="326.02" gradientTransform="matrix(1, 0, 0, 1, 0, 0)" gradientUnits="userSpaceOnUse"><stop offset="0" stop-color="#da3a1d"/><stop offset="1" stop-color="#e94e1b"/></linearGradient><linearGradient id="ac" x1=".5" y1="323.73" x2="741.99" y2="323.73" gradientTransform="matrix(1, 0, 0, 1, 0, 0)" gradientUnits="userSpaceOnUse"><stop offset="0" stop-color="#d9391e"/><stop offset="1" stop-color="#e94e1b"/></linearGradient><linearGradient id="ad" x1=".5" y1="321.43" y2="321.43" xlink:href="#ac"/><linearGradient id="ae" x1=".5" y1="319.13" x2="741.99" y2="319.13" gradientTransform="matrix(1, 0, 0, 1, 0, 0)" gradientUnits="userSpaceOnUse"><stop offset="0" stop-color="#d8381e"/><stop offset="1" stop-color="#e94e1b"/></linearGradient><linearGradient id="af" x1=".5" y1="316.83" x2="741.99" y2="316.83" gradientTransform="matrix(1, 0, 0, 1, 0, 0)" gradientUnits="userSpaceOnUse"><stop offset="0" stop-color="#d7371e"/><stop offset="1" stop-color="#e94e1b"/></linearGradient><linearGradient id="ag" x1=".5" y1="314.54" x2="741.99" y2="314.54" gradientTransform="matrix(1, 0, 0, 1, 0, 0)" gradientUnits="userSpaceOnUse"><stop offset="0" stop-color="#d7361e"/><stop offset="1" stop-color="#e94e1b"/></linearGradient><linearGradient id="ah" x1=".5" y1="312.24" x2="741.99" y2="312.24" gradientTransform="matrix(1, 0, 0, 1, 0, 0)" gradientUnits="userSpaceOnUse"><stop offset="0" stop-color="#d6361e"/><stop offset="1" stop-color="#e94e1b"/></linearGradient><linearGradient id="ai" x1=".5" y1="309.94" x2="741.99" y2="309.94" gradientTransform="matrix(1, 0, 0, 1, 0, 0)" gradientUnits="userSpaceOnUse"><stop offset="0" stop-color="#d6351e"/><stop offset="1" stop-color="#e94e1b"/></linearGradient><linearGradient id="aj" x1=".5" y1="307.64" x2="741.99" y2="307.64" gradientTransform="matrix(1, 0, 0, 1, 0, 0)" gradientUnits="userSpaceOnUse"><stop offset="0" stop-color="#d5341e"/><stop offset="1" stop-color="#e94e1b"/></linearGradient><linearGradient id="ak" x1=".5" y1="305.34" x2="741.99" y2="305.34" gradientTransform="matrix(1, 0, 0, 1, 0, 0)" gradientUnits="userSpaceOnUse"><stop offset="0" stop-color="#d5331e"/><stop offset="1" stop-color="#e94e1b"/></linearGradient><linearGradient id="al" x1=".5" y1="303.05" x2="741.99" y2="303.05" gradientTransform="matrix(1, 0, 0, 1, 0, 0)" gradientUnits="userSpaceOnUse"><stop offset="0" stop-color="#d4331e"/><stop offset="1" stop-color="#e94e1b"/></linearGradient><linearGradient id="am" x1=".5" y1="300.75" x2="741.99" y2="300.75" gradientTransform="matrix(1, 0, 0, 1, 0, 0)" gradientUnits="userSpaceOnUse"><stop offset="0" stop-color="#d4321e"/><stop offset="1" stop-color="#e94e1b"/></linearGradient><linearGradient id="an" x1=".5" y1="298.45" x2="741.99" y2="298.45" gradientTransform="matrix(1, 0, 0, 1, 0, 0)" gradientUnits="userSpaceOnUse"><stop offset="0" stop-color="#d3311f"/><stop offset="1" stop-color="#e94e1b"/></linearGradient><linearGradient id="ao" x1=".5" y1="296.15" x2="741.99" y2="296.15" gradientTransform="matrix(1, 0, 0, 1, 0, 0)" gradientUnits="userSpaceOnUse"><stop offset="0" stop-color="#d2311f"/><stop offset="1" stop-color="#e94e1b"/></linearGradient><linearGradient id="ap" x1=".5" y1="293.85" x2="741.99" y2="293.85" gradientTransform="matrix(1, 0, 0, 1, 0, 0)" gradientUnits="userSpaceOnUse"><stop offset="0" stop-color="#d2301f"/><stop offset="1" stop-color="#e94e1b"/></linearGradient><linearGradient id="aq" x1=".5" y1="291.56" x2="741.99" y2="291.56" gradientTransform="matrix(1, 0, 0, 1, 0, 0)" gradientUnits="userSpaceOnUse"><stop offset="0" stop-color="#d12f1f"/><stop offset="1" stop-color="#e94e1b"/></linearGradient><linearGradient id="ar" x1=".5" y1="289.26" x2="741.99" y2="289.26" gradientTransform="matrix(1, 0, 0, 1, 0, 0)" gradientUnits="userSpaceOnUse"><stop offset="0" stop-color="#d12e1f"/><stop offset="1" stop-color="#e94e1b"/></linearGradient><linearGradient id="as" x1=".5" y1="286.96" x2="741.99" y2="286.96" gradientTransform="matrix(1, 0, 0, 1, 0, 0)" gradientUnits="userSpaceOnUse"><stop offset="0" stop-color="#d02e1f"/><stop offset="1" stop-color="#e94e1b"/></linearGradient><linearGradient id="at" x1=".5" y1="284.66" x2="741.99" y2="284.66" gradientTransform="matrix(1, 0, 0, 1, 0, 0)" gradientUnits="userSpaceOnUse"><stop offset="0" stop-color="#d02d1f"/><stop offset="1" stop-color="#e94e1b"/></linearGradient><linearGradient id="au" x1=".5" y1="282.37" x2="741.99" y2="282.37" gradientTransform="matrix(1, 0, 0, 1, 0, 0)" gradientUnits="userSpaceOnUse"><stop offset="0" stop-color="#cf2c1f"/><stop offset="1" stop-color="#e94e1b"/></linearGradient><linearGradient id="av" x1=".5" y1="280.07" x2="741.99" y2="280.07" gradientTransform="matrix(1, 0, 0, 1, 0, 0)" gradientUnits="userSpaceOnUse"><stop offset="0" stop-color="#ce2b1f"/><stop offset="1" stop-color="#e94e1b"/></linearGradient><linearGradient id="aw" y1="277.77" y2="277.77" xlink:href="#av"/><linearGradient id="ax" x1=".5" y1="275.47" x2="741.99" y2="275.47" gradientTransform="matrix(1, 0, 0, 1, 0, 0)" gradientUnits="userSpaceOnUse"><stop offset="0" stop-color="#cd2a20"/><stop offset="1" stop-color="#e94e1b"/></linearGradient><linearGradient id="ay" x1=".5" y1="273.17" x2="741.99" y2="273.17" gradientTransform="matrix(1, 0, 0, 1, 0, 0)" gradientUnits="userSpaceOnUse"><stop offset="0" stop-color="#cd2920"/><stop offset="1" stop-color="#e94e1b"/></linearGradient><linearGradient id="b`" x1=".5" y1="270.88" x2="741.99" y2="270.88" gradientTransform="matrix(1, 0, 0, 1, 0, 0)" gradientUnits="userSpaceOnUse"><stop offset="0" stop-color="#cc2820"/><stop offset="1" stop-color="#e94e1b"/></linearGradient><linearGradient id="ba" x1=".5" y1="268.58" y2="268.58" xlink:href="#b`"/><linearGradient id="bb" x1=".5" y1="266.28" x2="741.99" y2="266.28" gradientTransform="matrix(1, 0, 0, 1, 0, 0)" gradientUnits="userSpaceOnUse"><stop offset="0" stop-color="#cb2720"/><stop offset="1" stop-color="#e94e1b"/></linearGradient><linearGradient id="bc" x1=".5" y1="263.98" x2="741.99" y2="263.98" gradientTransform="matrix(1, 0, 0, 1, 0, 0)" gradientUnits="userSpaceOnUse"><stop offset="0" stop-color="#ca2620"/><stop offset="1" stop-color="#e94e1b"/></linearGradient><linearGradient id="bd" x1=".5" y1="261.69" x2="741.99" y2="261.69" gradientTransform="matrix(1, 0, 0, 1, 0, 0)" gradientUnits="userSpaceOnUse"><stop offset="0" stop-color="#ca2520"/><stop offset="1" stop-color="#e94e1b"/></linearGradient><linearGradient id="be" x1=".5" y1="259.39" x2="741.99" y2="259.39" gradientTransform="matrix(1, 0, 0, 1, 0, 0)" gradientUnits="userSpaceOnUse"><stop offset="0" stop-color="#c92520"/><stop offset="1" stop-color="#e94e1b"/></linearGradient><linearGradient id="bf" x1=".5" y1="257.09" x2="741.99" y2="257.09" gradientTransform="matrix(1, 0, 0, 1, 0, 0)" gradientUnits="userSpaceOnUse"><stop offset="0" stop-color="#c92420"/><stop offset="1" stop-color="#e94e1b"/></linearGradient><linearGradient id="bg" x1=".5" y1="254.79" x2="741.99" y2="254.79" gradientTransform="matrix(1, 0, 0, 1, 0, 0)" gradientUnits="userSpaceOnUse"><stop offset="0" stop-color="#c82320"/><stop offset="1" stop-color="#e94e1b"/></linearGradient><linearGradient id="bh" y1="252.49" y2="252.49" xlink:href="#bg"/><linearGradient id="bi" x1=".5" y1="250.2" x2="741.99" y2="250.2" gradientTransform="matrix(1, 0, 0, 1, 0, 0)" gradientUnits="userSpaceOnUse"><stop offset="0" stop-color="#c72221"/><stop offset="1" stop-color="#e94e1b"/></linearGradient><linearGradient id="bj" x1=".5" y1="247.9" x2="741.99" y2="247.9" gradientTransform="matrix(1, 0, 0, 1, 0, 0)" gradientUnits="userSpaceOnUse"><stop offset="0" stop-color="#c62121"/><stop offset="1" stop-color="#e94e1b"/></linearGradient><linearGradient id="bk" x1=".5" y1="245.6" x2="741.99" y2="245.6" gradientTransform="matrix(1, 0, 0, 1, 0, 0)" gradientUnits="userSpaceOnUse"><stop offset="0" stop-color="#c62021"/><stop offset="1" stop-color="#e94e1b"/></linearGradient><linearGradient id="bl" x1=".5" y1="243.3" x2="741.99" y2="243.3" gradientTransform="matrix(1, 0, 0, 1, 0, 0)" gradientUnits="userSpaceOnUse"><stop offset="0" stop-color="#c52021"/><stop offset="1" stop-color="#e94e1b"/></linearGradient><linearGradient id="bm" x1=".5" y1="241" x2="741.99" y2="241" gradientTransform="matrix(1, 0, 0, 1, 0, 0)" gradientUnits="userSpaceOnUse"><stop offset="0" stop-color="#c51f21"/><stop offset="1" stop-color="#e94e1b"/></linearGradient><linearGradient id="bn" x1=".5" y1="238.71" x2="741.99" y2="238.71" gradientTransform="matrix(1, 0, 0, 1, 0, 0)" gradientUnits="userSpaceOnUse"><stop offset="0" stop-color="#c41e21"/><stop offset="1" stop-color="#e94e1b"/></linearGradient><linearGradient id="bo" x1=".5" y1="236.41" x2="741.99" y2="236.41" gradientTransform="matrix(1, 0, 0, 1, 0, 0)" gradientUnits="userSpaceOnUse"><stop offset="0" stop-color="#c41d21"/><stop offset="1" stop-color="#e94e1b"/></linearGradient><linearGradient id="bp" x1=".5" y1="234.11" x2="741.99" y2="234.11" gradientTransform="matrix(1, 0, 0, 1, 0, 0)" gradientUnits="userSpaceOnUse"><stop offset="0" stop-color="#c31d21"/><stop offset="1" stop-color="#e94e1b"/></linearGradient><linearGradient id="bq" x1=".5" y1="231.81" x2="741.99" y2="231.81" gradientTransform="matrix(1, 0, 0, 1, 0, 0)" gradientUnits="userSpaceOnUse"><stop offset="0" stop-color="#c31c21"/><stop offset="1" stop-color="#e94e1b"/></linearGradient><linearGradient id="br" x1=".5" y1="229.52" x2="741.99" y2="229.52" gradientTransform="matrix(1, 0, 0, 1, 0, 0)" gradientUnits="userSpaceOnUse"><stop offset="0" stop-color="#c21b21"/><stop offset="1" stop-color="#e94e1b"/></linearGradient><linearGradient id="bs" x1=".5" y1="227.22" x2="741.99" y2="227.22" gradientTransform="matrix(1, 0, 0, 1, 0, 0)" gradientUnits="userSpaceOnUse"><stop offset="0" stop-color="#c11a21"/><stop offset="1" stop-color="#e94e1b"/></linearGradient><linearGradient id="bt" x1=".5" y1="224.92" x2="741.99" y2="224.92" gradientTransform="matrix(1, 0, 0, 1, 0, 0)" gradientUnits="userSpaceOnUse"><stop offset="0" stop-color="#c11a22"/><stop offset="1" stop-color="#e94e1b"/></linearGradient><linearGradient id="bu" x1=".5" y1="222.62" x2="741.99" y2="222.62" gradientTransform="matrix(1, 0, 0, 1, 0, 0)" gradientUnits="userSpaceOnUse"><stop offset="0" stop-color="#c01922"/><stop offset="1" stop-color="#e94e1b"/></linearGradient><linearGradient id="bv" x1=".5" y1="220.32" x2="741.99" y2="220.32" gradientTransform="matrix(1, 0, 0, 1, 0, 0)" gradientUnits="userSpaceOnUse"><stop offset="0" stop-color="#c01822"/><stop offset="1" stop-color="#e94e1b"/></linearGradient><linearGradient id="bw" x1=".5" y1="218.03" x2="741.99" y2="218.03" gradientTransform="matrix(1, 0, 0, 1, 0, 0)" gradientUnits="userSpaceOnUse"><stop offset="0" stop-color="#bf1722"/><stop offset="1" stop-color="#e94e1b"/></linearGradient><linearGradient id="bx" y1="215.73" y2="215.73" xlink:href="#bw"/><linearGradient id="by" x1=".5" y1="213.43" x2="741.99" y2="213.43" gradientTransform="matrix(1, 0, 0, 1, 0, 0)" gradientUnits="userSpaceOnUse"><stop offset="0" stop-color="#be1622"/><stop offset="1" stop-color="#e94e1b"/></linearGradient></defs><g><g><path class="ex" d="M462.53,597.54c-8.12,4.64-21.38,4.6-29.47-.09L6.57,350.23c-8.09-4.69-8.09-12.37,0-17.07L272.34,178.71c8.08-4.7,21.35-4.77,29.49-.16l434.05,245.96c8.13,4.61,8.15,12.18,.03,16.82l-273.39,156.22Z"/><path class="fb" d="M462.53,597.54c-8.12,4.64-21.38,4.6-29.47-.09L6.57,350.23c-8.09-4.69-8.09-12.37,0-17.07L272.34,178.71c8.08-4.7,21.35-4.77,29.49-.16l434.05,245.96c8.13,4.61,8.15,12.18,.03,16.82l-273.39,156.22Z"/></g><g><path class="ct" d="M462.53,595.25c-8.12,4.64-21.38,4.6-29.47-.09L6.57,347.94c-8.09-4.69-8.09-12.37,0-17.07L272.34,176.41c8.08-4.7,21.35-4.77,29.49-.16l434.05,245.96c8.13,4.61,8.15,12.18,.03,16.82l-273.39,156.22Z"/><path class="fe" d="M462.53,595.25c-8.12,4.64-21.38,4.6-29.47-.09L6.57,347.94c-8.09-4.69-8.09-12.37,0-17.07L272.34,176.41c8.08-4.7,21.35-4.77,29.49-.16l434.05,245.96c8.13,4.61,8.15,12.18,.03,16.82l-273.39,156.22Z"/></g><g><path class="cs" d="M462.53,592.95c-8.12,4.64-21.38,4.6-29.47-.09L6.57,345.64c-8.09-4.69-8.09-12.37,0-17.07L272.34,174.11c8.08-4.7,21.35-4.77,29.49-.16l434.05,245.96c8.13,4.61,8.15,12.18,.03,16.82l-273.39,156.22Z"/><path class="fe" d="M462.53,592.95c-8.12,4.64-21.38,4.6-29.47-.09L6.57,345.64c-8.09-4.69-8.09-12.37,0-17.07L272.34,174.11c8.08-4.7,21.35-4.77,29.49-.16l434.05,245.96c8.13,4.61,8.15,12.18,.03,16.82l-273.39,156.22Z"/></g><g><path class="cd" d="M462.53,590.65c-8.12,4.64-21.38,4.6-29.47-.09L6.57,343.34c-8.09-4.69-8.09-12.37,0-17.07L272.34,171.81c8.08-4.7,21.35-4.77,29.49-.16l434.05,245.96c8.13,4.61,8.15,12.18,.03,16.82l-273.39,156.22Z"/><path class="fc" d="M462.53,590.65c-8.12,4.64-21.38,4.6-29.47-.09L6.57,343.34c-8.09-4.69-8.09-12.37,0-17.07L272.34,171.81c8.08-4.7,21.35-4.77,29.49-.16l434.05,245.96c8.13,4.61,8.15,12.18,.03,16.82l-273.39,156.22Z"/></g><g><path class="cc" d="M462.53,588.35c-8.12,4.64-21.38,4.6-29.47-.09L6.57,341.04c-8.09-4.69-8.09-12.37,0-17.07L272.34,169.51c8.08-4.7,21.35-4.77,29.49-.16l434.05,245.96c8.13,4.61,8.15,12.18,.03,16.82l-273.39,156.22Z"/><path class="fd" d="M462.53,588.35c-8.12,4.64-21.38,4.6-29.47-.09L6.57,341.04c-8.09-4.69-8.09-12.37,0-17.07L272.34,169.51c8.08-4.7,21.35-4.77,29.49-.16l434.05,245.96c8.13,4.61,8.15,12.18,.03,16.82l-273.39,156.22Z"/></g><g><path class="cf" d="M462.53,586.05c-8.12,4.64-21.38,4.6-29.47-.09L6.57,338.74c-8.09-4.69-8.09-12.37,0-17.07L272.34,167.22c8.08-4.7,21.35-4.77,29.49-.16l434.05,245.96c8.13,4.61,8.15,12.18,.03,16.82l-273.39,156.22Z"/><path class="fh" d="M462.53,586.05c-8.12,4.64-21.38,4.6-29.47-.09L6.57,338.74c-8.09-4.69-8.09-12.37,0-17.07L272.34,167.22c8.08-4.7,21.35-4.77,29.49-.16l434.05,245.96c8.13,4.61,8.15,12.18,.03,16.82l-273.39,156.22Z"/></g><g><path class="ce" d="M462.53,583.76c-8.12,4.64-21.38,4.6-29.47-.09L6.57,336.45c-8.09-4.69-8.09-12.37,0-17.07L272.34,164.92c8.08-4.7,21.35-4.77,29.49-.16l434.05,245.96c8.13,4.61,8.15,12.18,.03,16.82l-273.39,156.22Z"/><path class="fg" d="M462.53,583.76c-8.12,4.64-21.38,4.6-29.47-.09L6.57,336.45c-8.09-4.69-8.09-12.37,0-17.07L272.34,164.92c8.08-4.7,21.35-4.77,29.49-.16l434.05,245.96c8.13,4.61,8.15,12.18,.03,16.82l-273.39,156.22Z"/></g><g><path class="cm" d="M462.53,581.46c-8.12,4.64-21.38,4.6-29.47-.09L6.57,334.15c-8.09-4.69-8.09-12.37,0-17.07L272.34,162.62c8.08-4.7,21.35-4.77,29.49-.16l434.05,245.96c8.13,4.61,8.15,12.18,.03,16.82l-273.39,156.22Z"/><path class="ff" d="M462.53,581.46c-8.12,4.64-21.38,4.6-29.47-.09L6.57,334.15c-8.09-4.69-8.09-12.37,0-17.07L272.34,162.62c8.08-4.7,21.35-4.77,29.49-.16l434.05,245.96c8.13,4.61,8.15,12.18,.03,16.82l-273.39,156.22Z"/></g><g><path class="cl" d="M462.53,579.16c-8.12,4.64-21.38,4.6-29.47-.09L6.57,331.85c-8.09-4.69-8.09-12.37,0-17.07L272.34,160.32c8.08-4.7,21.35-4.77,29.49-.16l434.05,245.96c8.13,4.61,8.15,12.18,.03,16.82l-273.39,156.22Z"/><path class="fi" d="M462.53,579.16c-8.12,4.64-21.38,4.6-29.47-.09L6.57,331.85c-8.09-4.69-8.09-12.37,0-17.07L272.34,160.32c8.08-4.7,21.35-4.77,29.49-.16l434.05,245.96c8.13,4.61,8.15,12.18,.03,16.82l-273.39,156.22Z"/></g><g><path class="co" d="M462.53,576.86c-8.12,4.64-21.38,4.6-29.47-.09L6.57,329.55c-8.09-4.69-8.09-12.37,0-17.07L272.34,158.03c8.08-4.7,21.35-4.77,29.49-.16l434.05,245.96c8.13,4.61,8.15,12.18,.03,16.82l-273.39,156.22Z"/><path class="fo" d="M462.53,576.86c-8.12,4.64-21.38,4.6-29.47-.09L6.57,329.55c-8.09-4.69-8.09-12.37,0-17.07L272.34,158.03c8.08-4.7,21.35-4.77,29.49-.16l434.05,245.96c8.13,4.61,8.15,12.18,.03,16.82l-273.39,156.22Z"/></g><g><path class="cn" d="M462.53,574.57c-8.12,4.64-21.38,4.6-29.47-.09L6.57,327.26c-8.09-4.69-8.09-12.37,0-17.07L272.34,155.73c8.08-4.7,21.35-4.77,29.49-.16l434.05,245.96c8.13,4.61,8.15,12.18,.03,16.82l-273.39,156.22Z"/><path class="hg" d="M462.53,574.57c-8.12,4.64-21.38,4.6-29.47-.09L6.57,327.26c-8.09-4.69-8.09-12.37,0-17.07L272.34,155.73c8.08-4.7,21.35-4.77,29.49-.16l434.05,245.96c8.13,4.61,8.15,12.18,.03,16.82l-273.39,156.22Z"/></g><g><path class="cq" d="M462.53,572.27c-8.12,4.64-21.38,4.6-29.47-.09L6.57,324.96c-8.09-4.69-8.09-12.37,0-17.07L272.34,153.43c8.08-4.7,21.35-4.77,29.49-.16l434.05,245.96c8.13,4.61,8.15,12.18,.03,16.82l-273.39,156.22Z"/><path class="gq" d="M462.53,572.27c-8.12,4.64-21.38,4.6-29.47-.09L6.57,324.96c-8.09-4.69-8.09-12.37,0-17.07L272.34,153.43c8.08-4.7,21.35-4.77,29.49-.16l434.05,245.96c8.13,4.61,8.15,12.18,.03,16.82l-273.39,156.22Z"/></g><g><path class="cp" d="M462.53,569.97c-8.12,4.64-21.38,4.6-29.47-.09L6.57,322.66c-8.09-4.69-8.09-12.37,0-17.07L272.34,151.13c8.08-4.7,21.35-4.77,29.49-.16l434.05,245.96c8.13,4.61,8.15,12.18,.03,16.82l-273.39,156.22Z"/><path class="he" d="M462.53,569.97c-8.12,4.64-21.38,4.6-29.47-.09L6.57,322.66c-8.09-4.69-8.09-12.37,0-17.07L272.34,151.13c8.08-4.7,21.35-4.77,29.49-.16l434.05,245.96c8.13,4.61,8.15,12.18,.03,16.82l-273.39,156.22Z"/></g><g><path class="cr" d="M462.53,567.67c-8.12,4.64-21.38,4.6-29.47-.09L6.57,320.36c-8.09-4.69-8.09-12.37,0-17.07L272.34,148.83c8.08-4.7,21.35-4.77,29.49-.16l434.05,245.96c8.13,4.61,8.15,12.18,.03,16.82l-273.39,156.22Z"/><path class="hd" d="M462.53,567.67c-8.12,4.64-21.38,4.6-29.47-.09L6.57,320.36c-8.09-4.69-8.09-12.37,0-17.07L272.34,148.83c8.08-4.7,21.35-4.77,29.49-.16l434.05,245.96c8.13,4.61,8.15,12.18,.03,16.82l-273.39,156.22Z"/></g><g><path class="ch" d="M462.53,565.37c-8.12,4.64-21.38,4.6-29.47-.09L6.57,318.06c-8.09-4.69-8.09-12.37,0-17.07L272.34,146.54c8.08-4.7,21.35-4.77,29.49-.16l434.05,245.96c8.13,4.61,8.15,12.18,.03,16.82l-273.39,156.22Z"/><path class="hh" d="M462.53,565.37c-8.12,4.64-21.38,4.6-29.47-.09L6.57,318.06c-8.09-4.69-8.09-12.37,0-17.07L272.34,146.54c8.08-4.7,21.35-4.77,29.49-.16l434.05,245.96c8.13,4.61,8.15,12.18,.03,16.82l-273.39,156.22Z"/></g><g><path class="cg" d="M462.53,563.08c-8.12,4.64-21.38,4.6-29.47-.09L6.57,315.77c-8.09-4.69-8.09-12.37,0-17.07L272.34,144.24c8.08-4.7,21.35-4.77,29.49-.16l434.05,245.96c8.13,4.61,8.15,12.18,.03,16.82l-273.39,156.22Z"/><path class="gn" d="M462.53,563.08c-8.12,4.64-21.38,4.6-29.47-.09L6.57,315.77c-8.09-4.69-8.09-12.37,0-17.07L272.34,144.24c8.08-4.7,21.35-4.77,29.49-.16l434.05,245.96c8.13,4.61,8.15,12.18,.03,16.82l-273.39,156.22Z"/></g><g><path class="cj" d="M462.53,560.78c-8.12,4.64-21.38,4.6-29.47-.09L6.57,313.47c-8.09-4.69-8.09-12.37,0-17.07L272.34,141.94c8.08-4.7,21.35-4.77,29.49-.16l434.05,245.96c8.13,4.61,8.15,12.18,.03,16.82l-273.39,156.22Z"/><path class="go" d="M462.53,560.78c-8.12,4.64-21.38,4.6-29.47-.09L6.57,313.47c-8.09-4.69-8.09-12.37,0-17.07L272.34,141.94c8.08-4.7,21.35-4.77,29.49-.16l434.05,245.96c8.13,4.61,8.15,12.18,.03,16.82l-273.39,156.22Z"/></g><g><path class="ck" d="M462.53,558.48c-8.12,4.64-21.38,4.6-29.47-.09L6.57,311.17c-8.09-4.69-8.09-12.37,0-17.07L272.34,139.64c8.08-4.7,21.35-4.77,29.49-.16l434.05,245.96c8.13,4.61,8.15,12.18,.03,16.82l-273.39,156.22Z"/><path class="gx" d="M462.53,558.48c-8.12,4.64-21.38,4.6-29.47-.09L6.57,311.17c-8.09-4.69-8.09-12.37,0-17.07L272.34,139.64c8.08-4.7,21.35-4.77,29.49-.16l434.05,245.96c8.13,4.61,8.15,12.18,.03,16.82l-273.39,156.22Z"/></g><g><path class="ci" d="M462.53,556.18c-8.12,4.64-21.38,4.6-29.47-.09L6.57,308.87c-8.09-4.69-8.09-12.37,0-17.07L272.34,137.35c8.08-4.7,21.35-4.77,29.49-.16l434.05,245.96c8.13,4.61,8.15,12.18,.03,16.82l-273.39,156.22Z"/><path class="gx" d="M462.53,556.18c-8.12,4.64-21.38,4.6-29.47-.09L6.57,308.87c-8.09-4.69-8.09-12.37,0-17.07L272.34,137.35c8.08-4.7,21.35-4.77,29.49-.16l434.05,245.96c8.13,4.61,8.15,12.18,.03,16.82l-273.39,156.22Z"/></g><g><path class="ca" d="M462.53,553.88c-8.12,4.64-21.38,4.6-29.47-.09L6.57,306.57c-8.09-4.69-8.09-12.37,0-17.07L272.34,135.05c8.08-4.7,21.35-4.77,29.49-.16l434.05,245.96c8.13,4.61,8.15,12.18,.03,16.82l-273.39,156.22Z"/><path class="hk" d="M462.53,553.88c-8.12,4.64-21.38,4.6-29.47-.09L6.57,306.57c-8.09-4.69-8.09-12.37,0-17.07L272.34,135.05c8.08-4.7,21.35-4.77,29.49-.16l434.05,245.96c8.13,4.61,8.15,12.18,.03,16.82l-273.39,156.22Z"/></g><g><path class="c`" d="M462.53,551.59c-8.12,4.64-21.38,4.6-29.47-.09L6.57,304.28c-8.09-4.69-8.09-12.37,0-17.07L272.34,132.75c8.08-4.7,21.35-4.77,29.49-.16l434.05,245.96c8.13,4.61,8.15,12.18,.03,16.82l-273.39,156.22Z"/><path class="hl" d="M462.53,551.59c-8.12,4.64-21.38,4.6-29.47-.09L6.57,304.28c-8.09-4.69-8.09-12.37,0-17.07L272.34,132.75c8.08-4.7,21.35-4.77,29.49-.16l434.05,245.96c8.13,4.61,8.15,12.18,.03,16.82l-273.39,156.22Z"/></g><g><path class="cb" d="M462.53,549.29c-8.12,4.64-21.38,4.6-29.47-.09L6.57,301.98c-8.09-4.69-8.09-12.37,0-17.07L272.34,130.45c8.08-4.7,21.35-4.77,29.49-.16l434.05,245.96c8.13,4.61,8.15,12.18,.03,16.82l-273.39,156.22Z"/><path class="gs" d="M462.53,549.29c-8.12,4.64-21.38,4.6-29.47-.09L6.57,301.98c-8.09-4.69-8.09-12.37,0-17.07L272.34,130.45c8.08-4.7,21.35-4.77,29.49-.16l434.05,245.96c8.13,4.61,8.15,12.18,.03,16.82l-273.39,156.22Z"/></g><g><path class="cv" d="M462.53,546.99c-8.12,4.64-21.38,4.6-29.47-.09L6.57,299.68c-8.09-4.69-8.09-12.37,0-17.07L272.34,128.15c8.08-4.7,21.35-4.77,29.49-.16l434.05,245.96c8.13,4.61,8.15,12.18,.03,16.82l-273.39,156.22Z"/><path class="gp" d="M462.53,546.99c-8.12,4.64-21.38,4.6-29.47-.09L6.57,299.68c-8.09-4.69-8.09-12.37,0-17.07L272.34,128.15c8.08-4.7,21.35-4.77,29.49-.16l434.05,245.96c8.13,4.61,8.15,12.18,.03,16.82l-273.39,156.22Z"/></g><g><path class="cu" d="M462.53,544.69c-8.12,4.64-21.38,4.6-29.47-.09L6.57,297.38c-8.09-4.69-8.09-12.37,0-17.07L272.34,125.86c8.08-4.7,21.35-4.77,29.49-.16l434.05,245.96c8.13,4.61,8.15,12.18,.03,16.82l-273.39,156.22Z"/><path class="gv" d="M462.53,544.69c-8.12,4.64-21.38,4.6-29.47-.09L6.57,297.38c-8.09-4.69-8.09-12.37,0-17.07L272.34,125.86c8.08-4.7,21.35-4.77,29.49-.16l434.05,245.96c8.13,4.61,8.15,12.18,.03,16.82l-273.39,156.22Z"/></g><g><path class="cw" d="M462.53,542.4c-8.12,4.64-21.38,4.6-29.47-.09L6.57,295.09c-8.09-4.69-8.09-12.37,0-17.07L272.34,123.56c8.08-4.7,21.35-4.77,29.49-.16l434.05,245.96c8.13,4.61,8.15,12.18,.03,16.82l-273.39,156.22Z"/><path class="gw" d="M462.53,542.4c-8.12,4.64-21.38,4.6-29.47-.09L6.57,295.09c-8.09-4.69-8.09-12.37,0-17.07L272.34,123.56c8.08-4.7,21.35-4.77,29.49-.16l434.05,245.96c8.13,4.61,8.15,12.18,.03,16.82l-273.39,156.22Z"/></g><g><path class="di" d="M462.53,540.1c-8.12,4.64-21.38,4.6-29.47-.09L6.57,292.79c-8.09-4.69-8.09-12.37,0-17.07L272.34,121.26c8.08-4.7,21.35-4.77,29.49-.16l434.05,245.96c8.13,4.61,8.15,12.18,.03,16.82l-273.39,156.22Z"/><path class="gw" d="M462.53,540.1c-8.12,4.64-21.38,4.6-29.47-.09L6.57,292.79c-8.09-4.69-8.09-12.37,0-17.07L272.34,121.26c8.08-4.7,21.35-4.77,29.49-.16l434.05,245.96c8.13,4.61,8.15,12.18,.03,16.82l-273.39,156.22Z"/></g><g><path class="cx" d="M462.53,537.8c-8.12,4.64-21.38,4.6-29.47-.09L6.57,290.49c-8.09-4.69-8.09-12.37,0-17.07L272.34,118.96c8.08-4.7,21.35-4.77,29.49-.16l434.05,245.96c8.13,4.61,8.15,12.18,.03,16.82l-273.39,156.22Z"/><path class="gd" d="M462.53,537.8c-8.12,4.64-21.38,4.6-29.47-.09L6.57,290.49c-8.09-4.69-8.09-12.37,0-17.07L272.34,118.96c8.08-4.7,21.35-4.77,29.49-.16l434.05,245.96c8.13,4.61,8.15,12.18,.03,16.82l-273.39,156.22Z"/></g><g><path class="d`" d="M462.53,535.5c-8.12,4.64-21.38,4.6-29.47-.09L6.57,288.19c-8.09-4.69-8.09-12.37,0-17.07L272.34,116.66c8.08-4.7,21.35-4.77,29.49-.16l434.05,245.96c8.13,4.61,8.15,12.18,.03,16.82l-273.39,156.22Z"/><path class="gf" d="M462.53,535.5c-8.12,4.64-21.38,4.6-29.47-.09L6.57,288.19c-8.09-4.69-8.09-12.37,0-17.07L272.34,116.66c8.08-4.7,21.35-4.77,29.49-.16l434.05,245.96c8.13,4.61,8.15,12.18,.03,16.82l-273.39,156.22Z"/></g><g><path class="dq" d="M462.53,533.2c-8.12,4.64-21.38,4.6-29.47-.09L6.57,285.89c-8.09-4.69-8.09-12.37,0-17.07L272.34,114.37c8.08-4.7,21.35-4.77,29.49-.16l434.05,245.96c8.13,4.61,8.15,12.18,.03,16.82l-273.39,156.22Z"/><path class="ge" d="M462.53,533.2c-8.12,4.64-21.38,4.6-29.47-.09L6.57,285.89c-8.09-4.69-8.09-12.37,0-17.07L272.34,114.37c8.08-4.7,21.35-4.77,29.49-.16l434.05,245.96c8.13,4.61,8.15,12.18,.03,16.82l-273.39,156.22Z"/></g><g><path class="dc" d="M462.53,530.91c-8.12,4.64-21.38,4.6-29.47-.09L6.57,283.6c-8.09-4.69-8.09-12.37,0-17.07L272.34,112.07c8.08-4.7,21.35-4.77,29.49-.16l434.05,245.96c8.13,4.61,8.15,12.18,.03,16.82l-273.39,156.22Z"/><path class="ge" d="M462.53,530.91c-8.12,4.64-21.38,4.6-29.47-.09L6.57,283.6c-8.09-4.69-8.09-12.37,0-17.07L272.34,112.07c8.08-4.7,21.35-4.77,29.49-.16l434.05,245.96c8.13,4.61,8.15,12.18,.03,16.82l-273.39,156.22Z"/></g><g><path class="df" d="M462.53,528.61c-8.12,4.64-21.38,4.6-29.47-.09L6.57,281.3c-8.09-4.69-8.09-12.37,0-17.07L272.34,109.77c8.08-4.7,21.35-4.77,29.49-.16l434.05,245.96c8.13,4.61,8.15,12.18,.03,16.82l-273.39,156.22Z"/><path class="hc" d="M462.53,528.61c-8.12,4.64-21.38,4.6-29.47-.09L6.57,281.3c-8.09-4.69-8.09-12.37,0-17.07L272.34,109.77c8.08-4.7,21.35-4.77,29.49-.16l434.05,245.96c8.13,4.61,8.15,12.18,.03,16.82l-273.39,156.22Z"/></g><g><path class="dh" d="M462.53,526.31c-8.12,4.64-21.38,4.6-29.47-.09L6.57,279c-8.09-4.69-8.09-12.37,0-17.07L272.34,107.47c8.08-4.7,21.35-4.77,29.49-.16l434.05,245.96c8.13,4.61,8.15,12.18,.03,16.82l-273.39,156.22Z"/><path class="hj" d="M462.53,526.31c-8.12,4.64-21.38,4.6-29.47-.09L6.57,279c-8.09-4.69-8.09-12.37,0-17.07L272.34,107.47c8.08-4.7,21.35-4.77,29.49-.16l434.05,245.96c8.13,4.61,8.15,12.18,.03,16.82l-273.39,156.22Z"/></g><g><path class="cy" d="M462.53,524.01c-8.12,4.64-21.38,4.6-29.47-.09L6.57,276.7c-8.09-4.69-8.09-12.37,0-17.07L272.34,105.18c8.08-4.7,21.35-4.77,29.49-.16l434.05,245.96c8.13,4.61,8.15,12.18,.03,16.82l-273.39,156.22Z"/><path class="hi" d="M462.53,524.01c-8.12,4.64-21.38,4.6-29.47-.09L6.57,276.7c-8.09-4.69-8.09-12.37,0-17.07L272.34,105.18c8.08-4.7,21.35-4.77,29.49-.16l434.05,245.96c8.13,4.61,8.15,12.18,.03,16.82l-273.39,156.22Z"/></g><g><path class="da" d="M462.53,521.72c-8.12,4.64-21.38,4.6-29.47-.09L6.57,274.41c-8.09-4.69-8.09-12.37,0-17.07L272.34,102.88c8.08-4.7,21.35-4.77,29.49-.16l434.05,245.96c8.13,4.61,8.15,12.18,.03,16.82l-273.39,156.22Z"/><path class="gk" d="M462.53,521.72c-8.12,4.64-21.38,4.6-29.47-.09L6.57,274.41c-8.09-4.69-8.09-12.37,0-17.07L272.34,102.88c8.08-4.7,21.35-4.77,29.49-.16l434.05,245.96c8.13,4.61,8.15,12.18,.03,16.82l-273.39,156.22Z"/></g><g><path class="db" d="M462.53,519.42c-8.12,4.64-21.38,4.6-29.47-.09L6.57,272.11c-8.09-4.69-8.09-12.37,0-17.07L272.34,100.58c8.08-4.7,21.35-4.77,29.49-.16l434.05,245.96c8.13,4.61,8.15,12.18,.03,16.82l-273.39,156.22Z"/><path class="gj" d="M462.53,519.42c-8.12,4.64-21.38,4.6-29.47-.09L6.57,272.11c-8.09-4.69-8.09-12.37,0-17.07L272.34,100.58c8.08-4.7,21.35-4.77,29.49-.16l434.05,245.96c8.13,4.61,8.15,12.18,.03,16.82l-273.39,156.22Z"/></g><g><path class="de" d="M462.53,517.12c-8.12,4.64-21.38,4.6-29.47-.09L6.57,269.81c-8.09-4.69-8.09-12.37,0-17.07L272.34,98.28c8.08-4.7,21.35-4.77,29.49-.16l434.05,245.96c8.13,4.61,8.15,12.18,.03,16.82l-273.39,156.22Z"/><path class="gu" d="M462.53,517.12c-8.12,4.64-21.38,4.6-29.47-.09L6.57,269.81c-8.09-4.69-8.09-12.37,0-17.07L272.34,98.28c8.08-4.7,21.35-4.77,29.49-.16l434.05,245.96c8.13,4.61,8.15,12.18,.03,16.82l-273.39,156.22Z"/></g><g><path class="dv" d="M462.53,514.82c-8.12,4.64-21.38,4.6-29.47-.09L6.57,267.51c-8.09-4.69-8.09-12.37,0-17.07L272.34,95.98c8.08-4.7,21.35-4.77,29.49-.16l434.05,245.96c8.13,4.61,8.15,12.18,.03,16.82l-273.39,156.22Z"/><path class="gr" d="M462.53,514.82c-8.12,4.64-21.38,4.6-29.47-.09L6.57,267.51c-8.09-4.69-8.09-12.37,0-17.07L272.34,95.98c8.08-4.7,21.35-4.77,29.49-.16l434.05,245.96c8.13,4.61,8.15,12.18,.03,16.82l-273.39,156.22Z"/></g><g><path class="dm" d="M462.53,512.52c-8.12,4.64-21.38,4.6-29.47-.09L6.57,265.21c-8.09-4.69-8.09-12.37,0-17.07L272.34,93.69c8.08-4.7,21.35-4.77,29.49-.16l434.05,245.96c8.13,4.61,8.15,12.18,.03,16.82l-273.39,156.22Z"/><path class="fl" d="M462.53,512.52c-8.12,4.64-21.38,4.6-29.47-.09L6.57,265.21c-8.09-4.69-8.09-12.37,0-17.07L272.34,93.69c8.08-4.7,21.35-4.77,29.49-.16l434.05,245.96c8.13,4.61,8.15,12.18,.03,16.82l-273.39,156.22Z"/></g><g><path class="dp" d="M462.53,510.23c-8.12,4.64-21.38,4.6-29.47-.09L6.57,262.92c-8.09-4.69-8.09-12.37,0-17.07L272.34,91.39c8.08-4.7,21.35-4.77,29.49-.16l434.05,245.96c8.13,4.61,8.15,12.18,.03,16.82l-273.39,156.22Z"/><path class="ft" d="M462.53,510.23c-8.12,4.64-21.38,4.6-29.47-.09L6.57,262.92c-8.09-4.69-8.09-12.37,0-17.07L272.34,91.39c8.08-4.7,21.35-4.77,29.49-.16l434.05,245.96c8.13,4.61,8.15,12.18,.03,16.82l-273.39,156.22Z"/></g><g><path class="dr" d="M462.53,507.93c-8.12,4.64-21.38,4.6-29.47-.09L6.57,260.62c-8.09-4.69-8.09-12.37,0-17.07L272.34,89.09c8.08-4.7,21.35-4.77,29.49-.16l434.05,245.96c8.13,4.61,8.15,12.18,.03,16.82l-273.39,156.22Z"/><path class="fk" d="M462.53,507.93c-8.12,4.64-21.38,4.6-29.47-.09L6.57,260.62c-8.09-4.69-8.09-12.37,0-17.07L272.34,89.09c8.08-4.7,21.35-4.77,29.49-.16l434.05,245.96c8.13,4.61,8.15,12.18,.03,16.82l-273.39,156.22Z"/></g><g><path class="dd" d="M462.53,505.63c-8.12,4.64-21.38,4.6-29.47-.09L6.57,258.32c-8.09-4.69-8.09-12.37,0-17.07L272.34,86.79c8.08-4.7,21.35-4.77,29.49-.16l434.05,245.96c8.13,4.61,8.15,12.18,.03,16.82l-273.39,156.22Z"/><path class="hb" d="M462.53,505.63c-8.12,4.64-21.38,4.6-29.47-.09L6.57,258.32c-8.09-4.69-8.09-12.37,0-17.07L272.34,86.79c8.08-4.7,21.35-4.77,29.49-.16l434.05,245.96c8.13,4.61,8.15,12.18,.03,16.82l-273.39,156.22Z"/></g><g><path class="dg" d="M462.53,503.33c-8.12,4.64-21.38,4.6-29.47-.09L6.57,256.02c-8.09-4.69-8.09-12.37,0-17.07L272.34,84.5c8.08-4.7,21.35-4.77,29.49-.16l434.05,245.96c8.13,4.61,8.15,12.18,.03,16.82l-273.39,156.22Z"/><path class="ha" d="M462.53,503.33c-8.12,4.64-21.38,4.6-29.47-.09L6.57,256.02c-8.09-4.69-8.09-12.37,0-17.07L272.34,84.5c8.08-4.7,21.35-4.77,29.49-.16l434.05,245.96c8.13,4.61,8.15,12.18,.03,16.82l-273.39,156.22Z"/></g><g><path class="dk" d="M462.53,501.03c-8.12,4.64-21.38,4.6-29.47-.09L6.57,253.72c-8.09-4.69-8.09-12.37,0-17.07L272.34,82.2c8.08-4.7,21.35-4.77,29.49-.16l434.05,245.96c8.13,4.61,8.15,12.18,.03,16.82l-273.39,156.22Z"/><path class="gm" d="M462.53,501.03c-8.12,4.64-21.38,4.6-29.47-.09L6.57,253.72c-8.09-4.69-8.09-12.37,0-17.07L272.34,82.2c8.08-4.7,21.35-4.77,29.49-.16l434.05,245.96c8.13,4.61,8.15,12.18,.03,16.82l-273.39,156.22Z"/></g><g><path class="dl" d="M462.53,498.74c-8.12,4.64-21.38,4.6-29.47-.09L6.57,251.43c-8.09-4.69-8.09-12.37,0-17.07L272.34,79.9c8.08-4.7,21.35-4.77,29.49-.16l434.05,245.96c8.13,4.61,8.15,12.18,.03,16.82l-273.39,156.22Z"/><path class="gl" d="M462.53,498.74c-8.12,4.64-21.38,4.6-29.47-.09L6.57,251.43c-8.09-4.69-8.09-12.37,0-17.07L272.34,79.9c8.08-4.7,21.35-4.77,29.49-.16l434.05,245.96c8.13,4.61,8.15,12.18,.03,16.82l-273.39,156.22Z"/></g><g><path class="dj" d="M462.53,496.44c-8.12,4.64-21.38,4.6-29.47-.09L6.57,249.13c-8.09-4.69-8.09-12.37,0-17.07L272.34,77.6c8.08-4.7,21.35-4.77,29.49-.16l434.05,245.96c8.13,4.61,8.15,12.18,.03,16.82l-273.39,156.22Z"/><path class="gh" d="M462.53,496.44c-8.12,4.64-21.38,4.6-29.47-.09L6.57,249.13c-8.09-4.69-8.09-12.37,0-17.07L272.34,77.6c8.08-4.7,21.35-4.77,29.49-.16l434.05,245.96c8.13,4.61,8.15,12.18,.03,16.82l-273.39,156.22Z"/></g><g><path class="ds" d="M462.53,494.14c-8.12,4.64-21.38,4.6-29.47-.09L6.57,246.83c-8.09-4.69-8.09-12.37,0-17.07L272.34,75.3c8.08-4.7,21.35-4.77,29.49-.16l434.05,245.96c8.13,4.61,8.15,12.18,.03,16.82l-273.39,156.22Z"/><path class="gg" d="M462.53,494.14c-8.12,4.64-21.38,4.6-29.47-.09L6.57,246.83c-8.09-4.69-8.09-12.37,0-17.07L272.34,75.3c8.08-4.7,21.35-4.77,29.49-.16l434.05,245.96c8.13,4.61,8.15,12.18,.03,16.82l-273.39,156.22Z"/></g><g><path class="du" d="M462.53,491.84c-8.12,4.64-21.38,4.6-29.47-.09L6.57,244.53c-8.09-4.69-8.09-12.37,0-17.07L272.34,73.01c8.08-4.7,21.35-4.77,29.49-.16l434.05,245.96c8.13,4.61,8.15,12.18,.03,16.82l-273.39,156.22Z"/><path class="gi" d="M462.53,491.84c-8.12,4.64-21.38,4.6-29.47-.09L6.57,244.53c-8.09-4.69-8.09-12.37,0-17.07L272.34,73.01c8.08-4.7,21.35-4.77,29.49-.16l434.05,245.96c8.13,4.61,8.15,12.18,.03,16.82l-273.39,156.22Z"/></g><g><path class="dw" d="M462.53,489.55c-8.12,4.64-21.38,4.6-29.47-.09L6.57,242.24c-8.09-4.69-8.09-12.37,0-17.07L272.34,70.71c8.08-4.7,21.35-4.77,29.49-.16l434.05,245.96c8.13,4.61,8.15,12.18,.03,16.82l-273.39,156.22Z"/><path class="fq" d="M462.53,489.55c-8.12,4.64-21.38,4.6-29.47-.09L6.57,242.24c-8.09-4.69-8.09-12.37,0-17.07L272.34,70.71c8.08-4.7,21.35-4.77,29.49-.16l434.05,245.96c8.13,4.61,8.15,12.18,.03,16.82l-273.39,156.22Z"/></g><g><path class="do" d="M462.53,487.25c-8.12,4.64-21.38,4.6-29.47-.09L6.57,239.94c-8.09-4.69-8.09-12.37,0-17.07L272.34,68.41c8.08-4.7,21.35-4.77,29.49-.16l434.05,245.96c8.13,4.61,8.15,12.18,.03,16.82l-273.39,156.22Z"/><path class="fq" d="M462.53,487.25c-8.12,4.64-21.38,4.6-29.47-.09L6.57,239.94c-8.09-4.69-8.09-12.37,0-17.07L272.34,68.41c8.08-4.7,21.35-4.77,29.49-.16l434.05,245.96c8.13,4.61,8.15,12.18,.03,16.82l-273.39,156.22Z"/></g><g><path class="dn" d="M462.53,484.95c-8.12,4.64-21.38,4.6-29.47-.09L6.57,237.64c-8.09-4.69-8.09-12.37,0-17.07L272.34,66.11c8.08-4.7,21.35-4.77,29.49-.16l434.05,245.96c8.13,4.61,8.15,12.18,.03,16.82l-273.39,156.22Z"/><path class="fs" d="M462.53,484.95c-8.12,4.64-21.38,4.6-29.47-.09L6.57,237.64c-8.09-4.69-8.09-12.37,0-17.07L272.34,66.11c8.08-4.7,21.35-4.77,29.49-.16l434.05,245.96c8.13,4.61,8.15,12.18,.03,16.82l-273.39,156.22Z"/></g><g><path class="dt" d="M462.53,482.65c-8.12,4.64-21.38,4.6-29.47-.09L6.57,235.34c-8.09-4.69-8.09-12.37,0-17.07L272.34,63.81c8.08-4.7,21.35-4.77,29.49-.16l434.05,245.96c8.13,4.61,8.15,12.18,.03,16.82l-273.39,156.22Z"/><path class="fr" d="M462.53,482.65c-8.12,4.64-21.38,4.6-29.47-.09L6.57,235.34c-8.09-4.69-8.09-12.37,0-17.07L272.34,63.81c8.08-4.7,21.35-4.77,29.49-.16l434.05,245.96c8.13,4.61,8.15,12.18,.03,16.82l-273.39,156.22Z"/></g><g><path class="ei" d="M462.53,480.35c-8.12,4.64-21.38,4.6-29.47-.09L6.57,233.04c-8.09-4.69-8.09-12.37,0-17.07L272.34,61.52c8.08-4.7,21.35-4.77,29.49-.16l434.05,245.96c8.13,4.61,8.15,12.18,.03,16.82l-273.39,156.22Z"/><path class="gy" d="M462.53,480.35c-8.12,4.64-21.38,4.6-29.47-.09L6.57,233.04c-8.09-4.69-8.09-12.37,0-17.07L272.34,61.52c8.08-4.7,21.35-4.77,29.49-.16l434.05,245.96c8.13,4.61,8.15,12.18,.03,16.82l-273.39,156.22Z"/></g><g><path class="ee" d="M462.53,478.06c-8.12,4.64-21.38,4.6-29.47-.09L6.57,230.75c-8.09-4.69-8.09-12.37,0-17.07L272.34,59.22c8.08-4.7,21.35-4.77,29.49-.16l434.05,245.96c8.13,4.61,8.15,12.18,.03,16.82l-273.39,156.22Z"/><path class="gy" d="M462.53,478.06c-8.12,4.64-21.38,4.6-29.47-.09L6.57,230.75c-8.09-4.69-8.09-12.37,0-17.07L272.34,59.22c8.08-4.7,21.35-4.77,29.49-.16l434.05,245.96c8.13,4.61,8.15,12.18,.03,16.82l-273.39,156.22Z"/></g><g><path class="eh" d="M462.53,475.76c-8.12,4.64-21.38,4.6-29.47-.09L6.57,228.45c-8.09-4.69-8.09-12.37,0-17.07L272.34,56.92c8.08-4.7,21.35-4.77,29.49-.16l434.05,245.96c8.13,4.61,8.15,12.18,.03,16.82l-273.39,156.22Z"/><path class="hp" d="M462.53,475.76c-8.12,4.64-21.38,4.6-29.47-.09L6.57,228.45c-8.09-4.69-8.09-12.37,0-17.07L272.34,56.92c8.08-4.7,21.35-4.77,29.49-.16l434.05,245.96c8.13,4.61,8.15,12.18,.03,16.82l-273.39,156.22Z"/></g><g><path class="eg" d="M462.53,473.46c-8.12,4.64-21.38,4.6-29.47-.09L6.57,226.15c-8.09-4.69-8.09-12.37,0-17.07L272.34,54.62c8.08-4.7,21.35-4.77,29.49-.16l434.05,245.96c8.13,4.61,8.15,12.18,.03,16.82l-273.39,156.22Z"/><path class="hf" d="M462.53,473.46c-8.12,4.64-21.38,4.6-29.47-.09L6.57,226.15c-8.09-4.69-8.09-12.37,0-17.07L272.34,54.62c8.08-4.7,21.35-4.77,29.49-.16l434.05,245.96c8.13,4.61,8.15,12.18,.03,16.82l-273.39,156.22Z"/></g><g><path class="eb" d="M462.53,471.16c-8.12,4.64-21.38,4.6-29.47-.09L6.57,223.85c-8.09-4.69-8.09-12.37,0-17.07L272.34,52.33c8.08-4.7,21.35-4.77,29.49-.16l434.05,245.96c8.13,4.61,8.15,12.18,.03,16.82l-273.39,156.22Z"/><path class="gt" d="M462.53,471.16c-8.12,4.64-21.38,4.6-29.47-.09L6.57,223.85c-8.09-4.69-8.09-12.37,0-17.07L272.34,52.33c8.08-4.7,21.35-4.77,29.49-.16l434.05,245.96c8.13,4.61,8.15,12.18,.03,16.82l-273.39,156.22Z"/></g><g><path class="dx" d="M462.53,468.87c-8.12,4.64-21.38,4.6-29.47-.09L6.57,221.56c-8.09-4.69-8.09-12.37,0-17.07L272.34,50.03c8.08-4.7,21.35-4.77,29.49-.16l434.05,245.96c8.13,4.61,8.15,12.18,.03,16.82l-273.39,156.22Z"/><path class="hm" d="M462.53,468.87c-8.12,4.64-21.38,4.6-29.47-.09L6.57,221.56c-8.09-4.69-8.09-12.37,0-17.07L272.34,50.03c8.08-4.7,21.35-4.77,29.49-.16l434.05,245.96c8.13,4.61,8.15,12.18,.03,16.82l-273.39,156.22Z"/></g><g><path class="e`" d="M462.53,466.57c-8.12,4.64-21.38,4.6-29.47-.09L6.57,219.26c-8.09-4.69-8.09-12.37,0-17.07L272.34,47.73c8.08-4.7,21.35-4.77,29.49-.16l434.05,245.96c8.13,4.61,8.15,12.18,.03,16.82l-273.39,156.22Z"/><path class="fm" d="M462.53,466.57c-8.12,4.64-21.38,4.6-29.47-.09L6.57,219.26c-8.09-4.69-8.09-12.37,0-17.07L272.34,47.73c8.08-4.7,21.35-4.77,29.49-.16l434.05,245.96c8.13,4.61,8.15,12.18,.03,16.82l-273.39,156.22Z"/></g><g><path class="dy" d="M462.53,464.27c-8.12,4.64-21.38,4.6-29.47-.09L6.57,216.96c-8.09-4.69-8.09-12.37,0-17.07L272.34,45.43c8.08-4.7,21.35-4.77,29.49-.16l434.05,245.96c8.13,4.61,8.15,12.18,.03,16.82l-273.39,156.22Z"/><path class="fj" d="M462.53,464.27c-8.12,4.64-21.38,4.6-29.47-.09L6.57,216.96c-8.09-4.69-8.09-12.37,0-17.07L272.34,45.43c8.08-4.7,21.35-4.77,29.49-.16l434.05,245.96c8.13,4.61,8.15,12.18,.03,16.82l-273.39,156.22Z"/></g><g><path class="ef" d="M462.53,461.97c-8.12,4.64-21.38,4.6-29.47-.09L6.57,214.66c-8.09-4.69-8.09-12.37,0-17.07L272.34,43.13c8.08-4.7,21.35-4.77,29.49-.16l434.05,245.96c8.13,4.61,8.15,12.18,.03,16.82l-273.39,156.22Z"/><path class="fj" d="M462.53,461.97c-8.12,4.64-21.38,4.6-29.47-.09L6.57,214.66c-8.09-4.69-8.09-12.37,0-17.07L272.34,43.13c8.08-4.7,21.35-4.77,29.49-.16l434.05,245.96c8.13,4.61,8.15,12.18,.03,16.82l-273.39,156.22Z"/></g><g><path class="eo" d="M462.53,459.67c-8.12,4.64-21.38,4.6-29.47-.09L6.57,212.36c-8.09-4.69-8.09-12.37,0-17.07L272.34,40.84c8.08-4.7,21.35-4.77,29.49-.16l434.05,245.96c8.13,4.61,8.15,12.18,.03,16.82l-273.39,156.22Z"/><path class="h`" d="M462.53,459.67c-8.12,4.64-21.38,4.6-29.47-.09L6.57,212.36c-8.09-4.69-8.09-12.37,0-17.07L272.34,40.84c8.08-4.7,21.35-4.77,29.49-.16l434.05,245.96c8.13,4.61,8.15,12.18,.03,16.82l-273.39,156.22Z"/></g><g><path class="er" d="M462.53,457.38c-8.12,4.64-21.38,4.6-29.47-.09L6.57,210.07c-8.09-4.69-8.09-12.37,0-17.07L272.34,38.54c8.08-4.7,21.35-4.77,29.49-.16l434.05,245.96c8.13,4.61,8.15,12.18,.03,16.82l-273.39,156.22Z"/><path class="fn" d="M462.53,457.38c-8.12,4.64-21.38,4.6-29.47-.09L6.57,210.07c-8.09-4.69-8.09-12.37,0-17.07L272.34,38.54c8.08-4.7,21.35-4.77,29.49-.16l434.05,245.96c8.13,4.61,8.15,12.18,.03,16.82l-273.39,156.22Z"/></g><g><path class="eq" d="M462.53,455.08c-8.12,4.64-21.38,4.6-29.47-.09L6.57,207.77c-8.09-4.69-8.09-12.37,0-17.07L272.34,36.24c8.08-4.7,21.35-4.77,29.49-.16l434.05,245.96c8.13,4.61,8.15,12.18,.03,16.82l-273.39,156.22Z"/><path class="fp" d="M462.53,455.08c-8.12,4.64-21.38,4.6-29.47-.09L6.57,207.77c-8.09-4.69-8.09-12.37,0-17.07L272.34,36.24c8.08-4.7,21.35-4.77,29.49-.16l434.05,245.96c8.13,4.61,8.15,12.18,.03,16.82l-273.39,156.22Z"/></g><g><path class="el" d="M462.53,452.78c-8.12,4.64-21.38,4.6-29.47-.09L6.57,205.47c-8.09-4.69-8.09-12.37,0-17.07L272.34,33.94c8.08-4.7,21.35-4.77,29.49-.16l434.05,245.96c8.13,4.61,8.15,12.18,.03,16.82l-273.39,156.22Z"/><path class="fv" d="M462.53,452.78c-8.12,4.64-21.38,4.6-29.47-.09L6.57,205.47c-8.09-4.69-8.09-12.37,0-17.07L272.34,33.94c8.08-4.7,21.35-4.77,29.49-.16l434.05,245.96c8.13,4.61,8.15,12.18,.03,16.82l-273.39,156.22Z"/></g><g><path class="ea" d="M462.53,450.48c-8.12,4.64-21.38,4.6-29.47-.09L6.57,203.17c-8.09-4.69-8.09-12.37,0-17.07L272.34,31.65c8.08-4.7,21.35-4.77,29.49-.16l434.05,245.96c8.13,4.61,8.15,12.18,.03,16.82l-273.39,156.22Z"/><path class="fu" d="M462.53,450.48c-8.12,4.64-21.38,4.6-29.47-.09L6.57,203.17c-8.09-4.69-8.09-12.37,0-17.07L272.34,31.65c8.08-4.7,21.35-4.77,29.49-.16l434.05,245.96c8.13,4.61,8.15,12.18,.03,16.82l-273.39,156.22Z"/></g><g><path class="ed" d="M462.53,448.19c-8.12,4.64-21.38,4.6-29.47-.09L6.57,200.87c-8.09-4.69-8.09-12.37,0-17.07L272.34,29.35c8.08-4.7,21.35-4.77,29.49-.16l434.05,245.96c8.13,4.61,8.15,12.18,.03,16.82l-273.39,156.22Z"/><path class="f`" d="M462.53,448.19c-8.12,4.64-21.38,4.6-29.47-.09L6.57,200.87c-8.09-4.69-8.09-12.37,0-17.07L272.34,29.35c8.08-4.7,21.35-4.77,29.49-.16l434.05,245.96c8.13,4.61,8.15,12.18,.03,16.82l-273.39,156.22Z"/></g><g><path class="ec" d="M462.53,445.89c-8.12,4.64-21.38,4.6-29.47-.09L6.57,198.58c-8.09-4.69-8.09-12.37,0-17.07L272.34,27.05c8.08-4.7,21.35-4.77,29.49-.16l434.05,245.96c8.13,4.61,8.15,12.18,.03,16.82l-273.39,156.22Z"/><path class="fa" d="M462.53,445.89c-8.12,4.64-21.38,4.6-29.47-.09L6.57,198.58c-8.09-4.69-8.09-12.37,0-17.07L272.34,27.05c8.08-4.7,21.35-4.77,29.49-.16l434.05,245.96c8.13,4.61,8.15,12.18,.03,16.82l-273.39,156.22Z"/></g><g><path class="ep" d="M462.53,443.59c-8.12,4.64-21.38,4.6-29.47-.09L6.57,196.28c-8.09-4.69-8.09-12.37,0-17.07L272.34,24.75c8.08-4.7,21.35-4.77,29.49-.16l434.05,245.96c8.13,4.61,8.15,12.18,.03,16.82l-273.39,156.22Z"/><path class="hn" d="M462.53,443.59c-8.12,4.64-21.38,4.6-29.47-.09L6.57,196.28c-8.09-4.69-8.09-12.37,0-17.07L272.34,24.75c8.08-4.7,21.35-4.77,29.49-.16l434.05,245.96c8.13,4.61,8.15,12.18,.03,16.82l-273.39,156.22Z"/></g><g><path class="et" d="M462.53,441.29c-8.12,4.64-21.38,4.6-29.47-.09L6.57,193.98c-8.09-4.69-8.09-12.37,0-17.07L272.34,22.45c8.08-4.7,21.35-4.77,29.49-.16l434.05,245.96c8.13,4.61,8.15,12.18,.03,16.82l-273.39,156.22Z"/><path class="ho" d="M462.53,441.29c-8.12,4.64-21.38,4.6-29.47-.09L6.57,193.98c-8.09-4.69-8.09-12.37,0-17.07L272.34,22.45c8.08-4.7,21.35-4.77,29.49-.16l434.05,245.96c8.13,4.61,8.15,12.18,.03,16.82l-273.39,156.22Z"/></g><g><path class="ew" d="M462.53,438.99c-8.12,4.64-21.38,4.6-29.47-.09L6.57,191.68c-8.09-4.69-8.09-12.37,0-17.07L272.34,20.16c8.08-4.7,21.35-4.77,29.49-.16l434.05,245.96c8.13,4.61,8.15,12.18,.03,16.82l-273.39,156.22Z"/><path class="fy" d="M462.53,438.99c-8.12,4.64-21.38,4.6-29.47-.09L6.57,191.68c-8.09-4.69-8.09-12.37,0-17.07L272.34,20.16c8.08-4.7,21.35-4.77,29.49-.16l434.05,245.96c8.13,4.61,8.15,12.18,.03,16.82l-273.39,156.22Z"/></g><g><path class="ev" d="M462.53,436.7c-8.12,4.64-21.38,4.6-29.47-.09L6.57,189.39c-8.09-4.69-8.09-12.37,0-17.07L272.34,17.86c8.08-4.7,21.35-4.77,29.49-.16l434.05,245.96c8.13,4.61,8.15,12.18,.03,16.82l-273.39,156.22Z"/><path class="ga" d="M462.53,436.7c-8.12,4.64-21.38,4.6-29.47-.09L6.57,189.39c-8.09-4.69-8.09-12.37,0-17.07L272.34,17.86c8.08-4.7,21.35-4.77,29.49-.16l434.05,245.96c8.13,4.61,8.15,12.18,.03,16.82l-273.39,156.22Z"/></g><g><path class="es" d="M462.53,434.4c-8.12,4.64-21.38,4.6-29.47-.09L6.57,187.09c-8.09-4.69-8.09-12.37,0-17.07L272.34,15.56c8.08-4.7,21.35-4.77,29.49-.16l434.05,245.96c8.13,4.61,8.15,12.18,.03,16.82l-273.39,156.22Z"/><path class="gb" d="M462.53,434.4c-8.12,4.64-21.38,4.6-29.47-.09L6.57,187.09c-8.09-4.69-8.09-12.37,0-17.07L272.34,15.56c8.08-4.7,21.35-4.77,29.49-.16l434.05,245.96c8.13,4.61,8.15,12.18,.03,16.82l-273.39,156.22Z"/></g><g><path class="ek" d="M462.53,432.1c-8.12,4.64-21.38,4.6-29.47-.09L6.57,184.79c-8.09-4.69-8.09-12.37,0-17.07L272.34,13.26c8.08-4.7,21.35-4.77,29.49-.16l434.05,245.96c8.13,4.61,8.15,12.18,.03,16.82l-273.39,156.22Z"/><path class="fx" d="M462.53,432.1c-8.12,4.64-21.38,4.6-29.47-.09L6.57,184.79c-8.09-4.69-8.09-12.37,0-17.07L272.34,13.26c8.08-4.7,21.35-4.77,29.49-.16l434.05,245.96c8.13,4.61,8.15,12.18,.03,16.82l-273.39,156.22Z"/></g><g><path class="en" d="M462.53,429.8c-8.12,4.64-21.38,4.6-29.47-.09L6.57,182.49c-8.09-4.69-8.09-12.37,0-17.07L272.34,10.96c8.08-4.7,21.35-4.77,29.49-.16l434.05,245.96c8.13,4.61,8.15,12.18,.03,16.82l-273.39,156.22Z"/><path class="fw" d="M462.53,429.8c-8.12,4.64-21.38,4.6-29.47-.09L6.57,182.49c-8.09-4.69-8.09-12.37,0-17.07L272.34,10.96c8.08-4.7,21.35-4.77,29.49-.16l434.05,245.96c8.13,4.61,8.15,12.18,.03,16.82l-273.39,156.22Z"/></g><g><path class="em" d="M462.53,427.5c-8.12,4.64-21.38,4.6-29.47-.09L6.57,180.19c-8.09-4.69-8.09-12.37,0-17.07L272.34,8.67c8.08-4.7,21.35-4.77,29.49-.16l434.05,245.96c8.13,4.61,8.15,12.18,.03,16.82l-273.39,156.22Z"/><path class="gc" d="M462.53,427.5c-8.12,4.64-21.38,4.6-29.47-.09L6.57,180.19c-8.09-4.69-8.09-12.37,0-17.07L272.34,8.67c8.08-4.7,21.35-4.77,29.49-.16l434.05,245.96c8.13,4.61,8.15,12.18,.03,16.82l-273.39,156.22Z"/></g><g><path class="eu" d="M462.53,425.21c-8.12,4.64-21.38,4.6-29.47-.09L6.57,177.9c-8.09-4.69-8.09-12.37,0-17.07L272.34,6.37c8.08-4.7,21.35-4.77,29.49-.16l434.05,245.96c8.13,4.61,8.15,12.18,.03,16.82l-273.39,156.22Z"/><path class="gc" d="M462.53,425.21c-8.12,4.64-21.38,4.6-29.47-.09L6.57,177.9c-8.09-4.69-8.09-12.37,0-17.07L272.34,6.37c8.08-4.7,21.35-4.77,29.49-.16l434.05,245.96c8.13,4.61,8.15,12.18,.03,16.82l-273.39,156.22Z"/></g><g><path class="ej" d="M462.53,422.91c-8.12,4.64-21.38,4.6-29.47-.09L6.57,175.6c-8.09-4.69-8.09-12.37,0-17.07L272.34,4.07c8.08-4.7,21.35-4.77,29.49-.16l434.05,245.96c8.13,4.61,8.15,12.18,.03,16.82l-273.39,156.22Z"/><path class="g`" d="M462.53,422.91c-8.12,4.64-21.38,4.6-29.47-.09L6.57,175.6c-8.09-4.69-8.09-12.37,0-17.07L272.34,4.07c8.08-4.7,21.35-4.77,29.49-.16l434.05,245.96c8.13,4.61,8.15,12.18,.03,16.82l-273.39,156.22Z"/></g></g><g><ellipse class="ey" cx="293.22" cy="83.62" rx="51" ry="32.45"/><ellipse class="ey" cx="293.17" cy="82.13" rx="49.3" ry="31.37"/><ellipse class="ey" cx="293.12" cy="80.63" rx="47.6" ry="30.29"/><ellipse class="ey" cx="293.07" cy="79.14" rx="45.9" ry="29.21"/><ellipse class="ey" cx="293.02" cy="77.64" rx="44.2" ry="28.13"/><ellipse class="ey" cx="292.97" cy="76.15" rx="42.5" ry="27.05"/><ellipse class="ey" cx="292.91" cy="74.66" rx="40.8" ry="25.96"/><ellipse class="ey" cx="292.86" cy="73.16" rx="39.1" ry="24.88"/><ellipse class="ey" cx="292.81" cy="71.67" rx="37.4" ry="23.8"/><ellipse class="ey" cx="292.76" cy="70.17" rx="35.7" ry="22.72"/><ellipse class="ey" cx="292.71" cy="68.68" rx="34" ry="21.64"/><ellipse class="ey" cx="292.66" cy="67.19" rx="32.3" ry="20.55"/><ellipse class="ey" cx="292.6" cy="65.69" rx="30.6" ry="19.47"/><ellipse class="ey" cx="292.55" cy="64.2" rx="28.9" ry="18.39"/><ellipse class="ey" cx="292.5" cy="62.7" rx="27.2" ry="17.31"/><ellipse class="ey" cx="292.45" cy="61.21" rx="25.5" ry="16.23"/></g></svg>