<?xml version="1.0" encoding="UTF-8"?><svg id="a" xmlns="http://www.w3.org/2000/svg" xmlns:xlink="http://www.w3.org/1999/xlink" viewBox="0 0 514.47875 696.20001"><defs><style>.bs{fill:url(#u);}.bt{fill:url(#t);}.bu{fill:url(#v);}.bv{fill:url(#e);}.bw{fill:url(#d);}.bx{fill:url(#g);}.by{fill:url(#f);}.c`{fill:url(#p);}.ca{fill:url(#o);}.cb{fill:url(#s);}.cc{fill:url(#q);}.cd{fill:url(#r);}.ce{fill:url(#i);}.cf{fill:url(#h);}.cg{fill:url(#k);}.ch{fill:url(#j);}.ci{fill:url(#m);}.cj{fill:url(#l);}.ck{fill:url(#n);}.cl{fill:url(#x);}.cm{fill:url(#w);}.cn{fill:url(#y);}.co{fill:url(#aa);}.cp{fill:url(#ag);}.cq{fill:url(#ab);}.cr{fill:url(#ah);}.cs{fill:url(#ai);}.ct{fill:url(#ad);}.cu{fill:url(#ao);}.cv{fill:url(#aj);}.cw{fill:url(#ae);}.cx{fill:url(#ap);}.cy{fill:url(#af);}.d`{fill:url(#a`);}.da{fill:url(#as);}.db{fill:url(#aq);}.dc{fill:url(#ar);}.dd{fill:url(#al);}.de{fill:url(#ax);}.df{fill:url(#aw);}.dg{fill:url(#am);}.dh{fill:url(#ac);}.di{fill:url(#an);}.dj{fill:url(#at);}.dk{fill:url(#ay);}.dl{fill:url(#au);}.dm{fill:url(#ak);}.dn{fill:url(#av);}.do{fill:url(#be);}.dp{fill:url(#bm);}.dq{fill:url(#ba);}.dr{fill:url(#bb);}.ds{fill:url(#b`);}.dt{fill:url(#bi);}.du{fill:url(#bq);}.dv{fill:#e94e1b;}.dw{fill:#e64a1c;}.dx{fill:#e64b1b;}.dy{fill:#e5491c;}.e`{fill:#fff;}.ea{fill:#e84d1b;}.eb{fill:#e74c1b;}.ec{fill:#c41e21;}.ed{fill:#32ab4f;}.ee{fill:#cf2c1f;}.ef{fill:#d02d1f;}.eg{fill:#d12f1f;}.eh{fill:#d12e1f;}.ei{fill:#bf1722;}.ej{fill:#c11a21;}.ek{fill:#c11922;}.el{fill:#da3a1d;}.em{fill:#c31d21;}.en{fill:#be1622;}.eo{fill:#c01822;}.ep{fill:#c51f21;}.eq{fill:#c21b21;}.er{fill:#d9391e;}.es{fill:#ce2b1f;}.et{fill:#cc2920;}.eu{fill:#c72220;}.ev{fill:#cb2620;}.ew{fill:#cb2820;}.ex{fill:#d2301f;}.ey{fill:#df411d;}.f`{fill:#cd2a20;}.fa{fill:#d4331e;}.fb{fill:#d3311f;}.fc{fill:#e4471c;}.fd{fill:#c82320;}.fe{fill:#c62121;}.ff{fill:#c92420;}.fg{fill:#c62021;}.fh{fill:#d6361e;}.fi{fill:#d6351e;}.fj{fill:#d7371e;}.fk{fill:#de401d;}.fl{fill:#dc3c1d;}.fm{fill:#d5341e;}.fn{fill:#dc3e1d;}.fo{fill:#e1431c;}.fp{fill:#e1441c;}.fq{fill:#db3b1d;}.fr{fill:#dd3f1d;}.fs{fill:#e0421d;}.ft{fill:#e3461c;}.fu{fill:#ca2520;}.fv{fill:#e2451c;}.fw{fill:#d8381e;}</style><linearGradient id="d" x1="132.78615" y1="275.37268" x2="512.00084" y2="275.37268" gradientTransform="matrix(1, 0, 0, 1, 0, 0)" gradientUnits="userSpaceOnUse"><stop offset="0" stop-color="#be1622"/><stop offset="1" stop-color="#bf1722"/></linearGradient><linearGradient id="e" x1="130.14019" y1="277.5946" x2="510.0233" y2="277.5946" gradientTransform="matrix(1, 0, 0, 1, 0, 0)" gradientUnits="userSpaceOnUse"><stop offset="0" stop-color="#be1622"/><stop offset="1" stop-color="#c01822"/></linearGradient><linearGradient id="f" x1="127.49376" y1="279.81653" x2="508.04667" y2="279.81653" gradientTransform="matrix(1, 0, 0, 1, 0, 0)" gradientUnits="userSpaceOnUse"><stop offset="0" stop-color="#be1622"/><stop offset="1" stop-color="#c11922"/></linearGradient><linearGradient id="g" x1="124.8478" y1="282.03845" x2="506.06909" y2="282.03845" gradientTransform="matrix(1, 0, 0, 1, 0, 0)" gradientUnits="userSpaceOnUse"><stop offset="0" stop-color="#be1622"/><stop offset="1" stop-color="#c11a21"/></linearGradient><linearGradient id="h" x1="122.20183" y1="284.26062" x2="504.09152" y2="284.26062" gradientTransform="matrix(1, 0, 0, 1, 0, 0)" gradientUnits="userSpaceOnUse"><stop offset="0" stop-color="#be1622"/><stop offset="1" stop-color="#c21b21"/></linearGradient><linearGradient id="i" x1="119.55538" y1="286.48254" x2="502.11394" y2="286.48254" gradientTransform="matrix(1, 0, 0, 1, 0, 0)" gradientUnits="userSpaceOnUse"><stop offset="0" stop-color="#be1622"/><stop offset="1" stop-color="#c31d21"/></linearGradient><linearGradient id="j" x1="116.90942" y1="288.70447" x2="500.13634" y2="288.70447" gradientTransform="matrix(1, 0, 0, 1, 0, 0)" gradientUnits="userSpaceOnUse"><stop offset="0" stop-color="#be1622"/><stop offset="1" stop-color="#c41e21"/></linearGradient><linearGradient id="k" x1="114.26346" y1="290.92664" x2="498.15782" y2="290.92664" gradientTransform="matrix(1, 0, 0, 1, 0, 0)" gradientUnits="userSpaceOnUse"><stop offset="0" stop-color="#be1622"/><stop offset="1" stop-color="#c51f21"/></linearGradient><linearGradient id="l" x1="111.61749" y1="293.14856" x2="496.18025" y2="293.14856" gradientTransform="matrix(1, 0, 0, 1, 0, 0)" gradientUnits="userSpaceOnUse"><stop offset="0" stop-color="#be1622"/><stop offset="1" stop-color="#c62021"/></linearGradient><linearGradient id="m" x1="108.97153" y1="295.37048" x2="494.20268" y2="295.37048" gradientTransform="matrix(1, 0, 0, 1, 0, 0)" gradientUnits="userSpaceOnUse"><stop offset="0" stop-color="#be1622"/><stop offset="1" stop-color="#c62121"/></linearGradient><linearGradient id="n" x1="106.32556" y1="297.59265" x2="492.22511" y2="297.59265" gradientTransform="matrix(1, 0, 0, 1, 0, 0)" gradientUnits="userSpaceOnUse"><stop offset="0" stop-color="#be1622"/><stop offset="1" stop-color="#c72220"/></linearGradient><linearGradient id="o" x1="103.67959" y1="299.81409" x2="490.24755" y2="299.81409" gradientTransform="matrix(1, 0, 0, 1, 0, 0)" gradientUnits="userSpaceOnUse"><stop offset="0" stop-color="#be1622"/><stop offset="1" stop-color="#c82320"/></linearGradient><linearGradient id="p" x1="101.03363" y1="302.0365" x2="488.26993" y2="302.0365" gradientTransform="matrix(1, 0, 0, 1, 0, 0)" gradientUnits="userSpaceOnUse"><stop offset="0" stop-color="#be1622"/><stop offset="1" stop-color="#c92420"/></linearGradient><linearGradient id="q" x1="98.38766" y1="304.25793" x2="486.29238" y2="304.25793" gradientTransform="matrix(1, 0, 0, 1, 0, 0)" gradientUnits="userSpaceOnUse"><stop offset="0" stop-color="#be1622"/><stop offset="1" stop-color="#ca2520"/></linearGradient><linearGradient id="r" x1="95.74169" y1="306.4801" x2="484.31387" y2="306.4801" gradientTransform="matrix(1, 0, 0, 1, 0, 0)" gradientUnits="userSpaceOnUse"><stop offset="0" stop-color="#be1622"/><stop offset="1" stop-color="#cb2620"/></linearGradient><linearGradient id="s" x1="93.09573" y1="308.70203" x2="482.33628" y2="308.70203" gradientTransform="matrix(1, 0, 0, 1, 0, 0)" gradientUnits="userSpaceOnUse"><stop offset="0" stop-color="#be1622"/><stop offset="1" stop-color="#cb2820"/></linearGradient><linearGradient id="t" x1="90.44975" y1="310.92395" x2="480.35871" y2="310.92395" gradientTransform="matrix(1, 0, 0, 1, 0, 0)" gradientUnits="userSpaceOnUse"><stop offset="0" stop-color="#be1622"/><stop offset="1" stop-color="#cc2920"/></linearGradient><linearGradient id="u" x1="87.80426" y1="313.14563" x2="478.38115" y2="313.14563" gradientTransform="matrix(1, 0, 0, 1, 0, 0)" gradientUnits="userSpaceOnUse"><stop offset="0" stop-color="#be1622"/><stop offset="1" stop-color="#cd2a20"/></linearGradient><linearGradient id="v" x1="85.15829" y1="315.36755" x2="476.40264" y2="315.36755" gradientTransform="matrix(1, 0, 0, 1, 0, 0)" gradientUnits="userSpaceOnUse"><stop offset="0" stop-color="#be1622"/><stop offset="1" stop-color="#ce2b1f"/></linearGradient><linearGradient id="w" x1="82.51232" y1="317.58948" x2="474.42505" y2="317.58948" gradientTransform="matrix(1, 0, 0, 1, 0, 0)" gradientUnits="userSpaceOnUse"><stop offset="0" stop-color="#be1622"/><stop offset="1" stop-color="#cf2c1f"/></linearGradient><linearGradient id="x" x1="79.86634" y1="319.81165" x2="472.44749" y2="319.81165" gradientTransform="matrix(1, 0, 0, 1, 0, 0)" gradientUnits="userSpaceOnUse"><stop offset="0" stop-color="#be1622"/><stop offset="1" stop-color="#d02d1f"/></linearGradient><linearGradient id="y" x1="77.22086" y1="322.03357" x2="470.46897" y2="322.03357" gradientTransform="matrix(1, 0, 0, 1, 0, 0)" gradientUnits="userSpaceOnUse"><stop offset="0" stop-color="#be1622"/><stop offset="1" stop-color="#d12e1f"/></linearGradient><linearGradient id="a`" x1="74.57488" y1="324.25549" x2="468.49139" y2="324.25549" gradientTransform="matrix(1, 0, 0, 1, 0, 0)" gradientUnits="userSpaceOnUse"><stop offset="0" stop-color="#be1622"/><stop offset="1" stop-color="#d12f1f"/></linearGradient><linearGradient id="aa" x1="71.92939" y1="326.47717" x2="466.51384" y2="326.47717" gradientTransform="matrix(1, 0, 0, 1, 0, 0)" gradientUnits="userSpaceOnUse"><stop offset="0" stop-color="#be1622"/><stop offset="1" stop-color="#d2301f"/></linearGradient><linearGradient id="ab" x1="69.28341" y1="328.6991" x2="464.53532" y2="328.6991" gradientTransform="matrix(1, 0, 0, 1, 0, 0)" gradientUnits="userSpaceOnUse"><stop offset="0" stop-color="#be1622"/><stop offset="1" stop-color="#d3311f"/></linearGradient><linearGradient id="ac" x1="66.63792" y1="330.92102" x2="462.55776" y2="330.92102" gradientTransform="matrix(1, 0, 0, 1, 0, 0)" gradientUnits="userSpaceOnUse"><stop offset="0" stop-color="#be1622"/><stop offset="1" stop-color="#d4331e"/></linearGradient><linearGradient id="ad" x1="63.99195" y1="333.14294" x2="460.57923" y2="333.14294" gradientTransform="matrix(1, 0, 0, 1, 0, 0)" gradientUnits="userSpaceOnUse"><stop offset="0" stop-color="#be1622"/><stop offset="1" stop-color="#d5341e"/></linearGradient><linearGradient id="ae" x1="61.34645" y1="335.36462" x2="458.60167" y2="335.36462" gradientTransform="matrix(1, 0, 0, 1, 0, 0)" gradientUnits="userSpaceOnUse"><stop offset="0" stop-color="#be1622"/><stop offset="1" stop-color="#d6351e"/></linearGradient><linearGradient id="af" x1="58.70095" y1="337.58655" x2="456.62314" y2="337.58655" gradientTransform="matrix(1, 0, 0, 1, 0, 0)" gradientUnits="userSpaceOnUse"><stop offset="0" stop-color="#be1622"/><stop offset="1" stop-color="#d6361e"/></linearGradient><linearGradient id="ag" x1="56.05498" y1="339.80847" x2="454.64559" y2="339.80847" gradientTransform="matrix(1, 0, 0, 1, 0, 0)" gradientUnits="userSpaceOnUse"><stop offset="0" stop-color="#be1622"/><stop offset="1" stop-color="#d7371e"/></linearGradient><linearGradient id="ah" x1="53.40948" y1="342.03015" x2="452.66706" y2="342.03015" gradientTransform="matrix(1, 0, 0, 1, 0, 0)" gradientUnits="userSpaceOnUse"><stop offset="0" stop-color="#be1622"/><stop offset="1" stop-color="#d8381e"/></linearGradient><linearGradient id="ai" x1="50.76399" y1="344.25208" x2="450.68951" y2="344.25208" gradientTransform="matrix(1, 0, 0, 1, 0, 0)" gradientUnits="userSpaceOnUse"><stop offset="0" stop-color="#be1622"/><stop offset="1" stop-color="#d9391e"/></linearGradient><linearGradient id="aj" x1="48.11801" y1="346.474" x2="448.71098" y2="346.474" gradientTransform="matrix(1, 0, 0, 1, 0, 0)" gradientUnits="userSpaceOnUse"><stop offset="0" stop-color="#be1622"/><stop offset="1" stop-color="#da3a1d"/></linearGradient><linearGradient id="ak" x1="45.47251" y1="348.69568" x2="446.73342" y2="348.69568" gradientTransform="matrix(1, 0, 0, 1, 0, 0)" gradientUnits="userSpaceOnUse"><stop offset="0" stop-color="#be1622"/><stop offset="1" stop-color="#db3b1d"/></linearGradient><linearGradient id="al" x1="42.82701" y1="350.9176" x2="444.7549" y2="350.9176" gradientTransform="matrix(1, 0, 0, 1, 0, 0)" gradientUnits="userSpaceOnUse"><stop offset="0" stop-color="#be1622"/><stop offset="1" stop-color="#dc3c1d"/></linearGradient><linearGradient id="am" x1="40.18151" y1="353.13953" x2="442.77638" y2="353.13953" gradientTransform="matrix(1, 0, 0, 1, 0, 0)" gradientUnits="userSpaceOnUse"><stop offset="0" stop-color="#be1622"/><stop offset="1" stop-color="#dc3e1d"/></linearGradient><linearGradient id="an" x1="37.53602" y1="355.36096" x2="440.79882" y2="355.36096" gradientTransform="matrix(1, 0, 0, 1, 0, 0)" gradientUnits="userSpaceOnUse"><stop offset="0" stop-color="#be1622"/><stop offset="1" stop-color="#dd3f1d"/></linearGradient><linearGradient id="ao" x1="34.89051" y1="357.58313" x2="438.8203" y2="357.58313" gradientTransform="matrix(1, 0, 0, 1, 0, 0)" gradientUnits="userSpaceOnUse"><stop offset="0" stop-color="#be1622"/><stop offset="1" stop-color="#de401d"/></linearGradient><linearGradient id="ap" x1="32.24501" y1="359.80457" x2="436.84275" y2="359.80457" gradientTransform="matrix(1, 0, 0, 1, 0, 0)" gradientUnits="userSpaceOnUse"><stop offset="0" stop-color="#be1622"/><stop offset="1" stop-color="#df411d"/></linearGradient><linearGradient id="aq" x1="29.59951" y1="362.02649" x2="434.86423" y2="362.02649" gradientTransform="matrix(1, 0, 0, 1, 0, 0)" gradientUnits="userSpaceOnUse"><stop offset="0" stop-color="#be1622"/><stop offset="1" stop-color="#e0421d"/></linearGradient><linearGradient id="ar" x1="26.95401" y1="364.24866" x2="432.88571" y2="364.24866" gradientTransform="matrix(1, 0, 0, 1, 0, 0)" gradientUnits="userSpaceOnUse"><stop offset="0" stop-color="#be1622"/><stop offset="1" stop-color="#e1431c"/></linearGradient><linearGradient id="as" x1="24.30851" y1="366.47009" x2="430.90719" y2="366.47009" gradientTransform="matrix(1, 0, 0, 1, 0, 0)" gradientUnits="userSpaceOnUse"><stop offset="0" stop-color="#be1622"/><stop offset="1" stop-color="#e1441c"/></linearGradient><linearGradient id="at" x1="21.66301" y1="368.69202" x2="428.92964" y2="368.69202" gradientTransform="matrix(1, 0, 0, 1, 0, 0)" gradientUnits="userSpaceOnUse"><stop offset="0" stop-color="#be1622"/><stop offset="1" stop-color="#e2451c"/></linearGradient><linearGradient id="au" x1="19.0175" y1="370.9137" x2="426.95112" y2="370.9137" gradientTransform="matrix(1, 0, 0, 1, 0, 0)" gradientUnits="userSpaceOnUse"><stop offset="0" stop-color="#be1622"/><stop offset="1" stop-color="#e3461c"/></linearGradient><linearGradient id="av" x1="16.372" y1="373.13562" x2="424.97261" y2="373.13562" gradientTransform="matrix(1, 0, 0, 1, 0, 0)" gradientUnits="userSpaceOnUse"><stop offset="0" stop-color="#be1622"/><stop offset="1" stop-color="#e4471c"/></linearGradient><linearGradient id="aw" x1="13.72698" y1="375.35706" x2="422.99409" y2="375.35706" gradientTransform="matrix(1, 0, 0, 1, 0, 0)" gradientUnits="userSpaceOnUse"><stop offset="0" stop-color="#be1622"/><stop offset="1" stop-color="#e5491c"/></linearGradient><linearGradient id="ax" x1="11.08148" y1="377.57922" x2="421.01654" y2="377.57922" gradientTransform="matrix(1, 0, 0, 1, 0, 0)" gradientUnits="userSpaceOnUse"><stop offset="0" stop-color="#be1622"/><stop offset="1" stop-color="#e64a1c"/></linearGradient><linearGradient id="ay" x1="8.43597" y1="379.80066" x2="419.03803" y2="379.80066" gradientTransform="matrix(1, 0, 0, 1, 0, 0)" gradientUnits="userSpaceOnUse"><stop offset="0" stop-color="#be1622"/><stop offset="1" stop-color="#e64b1b"/></linearGradient><linearGradient id="b`" x1="5.79047" y1="382.02258" x2="417.05951" y2="382.02258" gradientTransform="matrix(1, 0, 0, 1, 0, 0)" gradientUnits="userSpaceOnUse"><stop offset="0" stop-color="#be1622"/><stop offset="1" stop-color="#e74c1b"/></linearGradient><linearGradient id="ba" x1="3.14545" y1="384.24402" x2="415.08099" y2="384.24402" gradientTransform="matrix(1, 0, 0, 1, 0, 0)" gradientUnits="userSpaceOnUse"><stop offset="0" stop-color="#be1622"/><stop offset="1" stop-color="#e84d1b"/></linearGradient><linearGradient id="bb" x1=".49994" y1="386.4657" x2="413.10248" y2="386.4657" gradientTransform="matrix(1, 0, 0, 1, 0, 0)" gradientUnits="userSpaceOnUse"><stop offset="0" stop-color="#be1622"/><stop offset="1" stop-color="#e94e1b"/></linearGradient><linearGradient id="be" x1="54.27364" y1="209.60858" x2="359.32901" y2="209.60858" gradientTransform="matrix(1, 0, 0, 1, 0, 0)" gradientUnits="userSpaceOnUse"><stop offset="0" stop-color="#be1622" stop-opacity=".8"/><stop offset="1" stop-color="#e94e1b" stop-opacity=".8"/></linearGradient><linearGradient id="bi" y1="323.77041" y2="323.77041" xlink:href="#be"/><linearGradient id="bm" y1="437.93223" y2="437.93223" xlink:href="#be"/><linearGradient id="bq" y1="552.09406" y2="552.09406" xlink:href="#be"/></defs><g id="b"><g id="c"><path class="en" d="M491.04944,1c9.37952,0,17.08923,7.63036,17.18628,17.00935l5.24213,506.73851c.04681,4.52063-1.68274,8.8017-4.87006,12.05444-3.18726,3.25275-7.43219,5.06903-11.95294,5.11426l-338.30225,3.38306-.17194,.00085c-9.28,0-16.90744-7.54999-17.00281-16.83026l-5.24463-510.48151c-.04642-4.51878,1.68228-8.77971,4.86765-11.998,3.18542-3.21829,7.42844-4.99071,11.94751-4.99071H491.04944m0-1H152.74838c-9.90002,0-17.91681,8.09956-17.81509,17.99899l5.24466,510.48148c.10107,9.83905,8.18472,17.82001,18.00275,17.82001,.06027,0,.12091-.00031,.1813-.00092l338.30286-3.38306c9.89954-.099,17.91534-8.27948,17.81293-18.17902l-5.24213-506.73849c-.10242-9.89943-8.28619-17.99899-18.18622-17.99899h0Z"/><g><g><path class="en" d="M158.17963,545.80017c-9.55225,0-17.40332-7.77148-17.50146-17.32422l-5.24463-510.48242c-.04785-4.65283,1.73193-9.04053,5.01172-12.35449,3.28027-3.31396,7.64941-5.13916,12.30322-5.13916H491.04974c9.65234,0,17.58594,7.85254,17.68555,17.50391l5.24219,506.73877c.04785,4.6543-1.73242,9.06152-5.0127,12.41016-3.28027,3.34766-7.65039,5.21777-12.30469,5.26367l-338.48047,3.38379Z"/><path class="dv" d="M491.04944,1c9.37952,0,17.08923,7.63036,17.18628,17.00935l5.24213,506.73851c.04681,4.52063-1.68274,8.8017-4.87006,12.05444-3.18726,3.25275-7.43219,5.06903-11.95294,5.11426l-338.30225,3.38306-.17194,.00085c-9.28,0-16.90744-7.54999-17.00281-16.83026l-5.24463-510.48151c-.04642-4.51878,1.68228-8.77971,4.86765-11.998,3.18542-3.21829,7.42844-4.99071,11.94751-4.99071H491.04944m0-1H152.74838c-9.90002,0-17.91681,8.09956-17.81509,17.99899l5.24466,510.48148c.10107,9.83905,8.18472,17.82001,18.00275,17.82001,.06027,0,.12091-.00031,.1813-.00092l338.30286-3.38306c9.89954-.099,17.91534-8.27948,17.81293-18.17902l-5.24213-506.73849c-.10242-9.89943-8.28619-17.99899-18.18622-17.99899h0Z"/></g><g><path class="bw" d="M155.43304,548.7406c-9.55518,0-17.40723-7.77441-17.50342-17.3291l-5.14258-511.9126c-.04688-4.65332,1.73438-9.04102,5.01465-12.35498,3.28125-3.31396,7.65088-5.13916,12.30469-5.13916H489.17767c9.65234,0,17.58496,7.85254,17.68262,17.50391l5.13965,508.24268c.04688,4.6543-1.7334,9.06152-5.01562,12.4082-3.28125,3.34766-7.65137,5.2168-12.30566,5.26172l-339.24561,3.31934Z"/><path class="ea" d="M489.17792,2.50455c9.37933,0,17.08722,7.63028,17.18213,17.00922l5.14038,508.24295c.04572,4.52063-1.68488,8.80127-4.87286,12.05341-3.18805,3.25208-7.43335,5.06744-11.9541,5.11163l-339.07333,3.31744-.16772,.00079c-9.28201,0-16.9093-7.55164-17.00266-16.83392l-5.1427-511.91252c-.04544-4.51878,1.68427-8.77986,4.87042-11.99821,3.18622-3.21835,7.42972-4.99078,11.94879-4.99078H489.17792m0-1H150.10626c-9.89999,0-17.91864,8.09956-17.81915,17.99907l5.14273,511.91252c.09891,9.84094,8.18213,17.82385,18.00259,17.82385,.05847,0,.11877-.00031,.1774-.00085l339.07339-3.31744c9.89954-.0968,17.91724-8.27563,17.81708-18.17517l-5.14032-508.2429c-.10016-9.89951-8.28204-17.99907-18.18207-17.99907h0Z"/></g><g><path class="bv" d="M152.68402,551.68005c-9.55713,0-17.40869-7.77539-17.50244-17.33301L130.14105,21.0033c-.0459-4.65332,1.73633-9.0415,5.01807-12.35547,3.28125-3.31348,7.65137-5.13867,12.30518-5.13867H487.30658c9.65234,0,17.58301,7.85205,17.67773,17.50391l5.03809,509.74707c.04688,4.6543-1.73535,9.06055-5.01758,12.40723-3.2832,3.34766-7.6543,5.21484-12.30859,5.25977l-340.01221,3.25293Z"/><path class="eb" d="M487.30646,4.00909c9.37927,0,17.08527,7.63022,17.17792,17.00893l5.03857,509.74742c.04462,4.52075-1.68689,8.80103-4.87567,12.05243-3.18878,3.25146-7.43457,5.06586-11.95526,5.10913l-339.8443,3.25183-.16357,.00073c-9.284,0-16.91129-7.55328-17.0025-16.83752L130.64078,20.99838c-.04434-4.51894,1.68637-8.78,4.87329-11.99837,3.18701-3.21843,7.43094-4.99092,11.95007-4.99092H487.30646m0-1H147.46414c-9.89999,0-17.9205,8.09956-17.82327,17.99907l5.04083,513.34364c.09665,9.84216,8.18033,17.82776,18.00244,17.82776,.05728,0,.11609-.00031,.17349-.00085l339.84396-3.25177c9.89954-.09473,17.91913-8.27185,17.82123-18.17133l-5.03851-509.74745c-.09784-9.89951-8.27789-17.99907-18.17786-17.99907h0Z"/></g><g><path class="by" d="M149.93549,554.61951c-9.55859,0-17.41016-7.77734-17.50195-17.33691L127.49457,22.50769c-.04443-4.65332,1.73877-9.04102,5.021-12.35547,3.28223-3.31348,7.65283-5.13867,12.30664-5.13867H485.43451c9.65332,0,17.58105,7.85205,17.67383,17.50391l4.9375,511.25244c.04492,4.6543-1.73926,9.05957-5.02246,12.40625-3.2832,3.3457-7.6543,5.21191-12.30859,5.25586l-340.7793,3.1875Z"/><path class="dx" d="M485.435,5.5136c9.37903,0,17.08319,7.63014,17.17377,17.00879l4.93665,511.25191c.04364,4.52075-1.68884,8.8006-4.87836,12.05139-3.18951,3.25073-7.43573,5.06421-11.95642,5.10657l-340.61411,3.18616-.16064,.00067c-9.28607,0-16.91327-7.55493-17.00241-16.84119L127.9946,22.50317c-.04333-4.51894,1.68835-8.78015,4.8761-11.99857,3.18771-3.21851,7.43213-4.99101,11.95126-4.99101H485.435m0-1H144.82196c-9.89999,0-17.92227,8.09966-17.82727,17.99915l4.93884,514.77473c.09445,9.84338,8.17862,17.8316,18.00238,17.8316,.05606,0,.11337-.00024,.16956-.00079l340.6145-3.1861c9.8996-.09265,17.92102-8.26801,17.82538-18.16754l-4.93665-511.25191c-.09558-9.89949-8.2738-17.99915-18.17371-17.99915h0Z"/></g><g><path class="bx" d="M147.1889,557.55896c-9.56201,0-17.41406-7.7793-17.50342-17.34082L124.84857,24.01257c-.04346-4.65332,1.74023-9.0415,5.02344-12.35547s7.6543-5.13916,12.30762-5.13916H483.56342c9.65137,0,17.57812,7.85254,17.66992,17.50439l4.83496,512.75635c.04395,4.6543-1.74121,9.05957-5.02441,12.40527-3.28418,3.3457-7.65625,5.21094-12.31055,5.25391l-341.54443,3.12109Z"/><path class="dw" d="M483.56342,7.01814c9.37903,0,17.0813,7.63008,17.1698,17.00865l4.83472,512.75629c.04254,4.52069-1.69086,8.80029-4.88116,12.05035-3.19019,3.25006-7.43683,5.06262-11.95758,5.104l-341.38498,3.12042-.15671,.00073c-9.28799,0-16.91516-7.55658-17.00223-16.84479L125.34842,24.00801c-.04227-4.51907,1.69043-8.78029,4.87894-11.99886,3.18851-3.21851,7.43329-4.99101,11.95248-4.99101H483.56342m0-1H142.17984c-9.89999,0-17.92407,8.09966-17.83133,17.99922l4.83685,516.20578c.09225,9.84454,8.17679,17.83539,18.00214,17.83539,.05487,0,.11081-.00024,.16577-.00073l341.38507-3.12042c9.8996-.09045,17.92285-8.26416,17.82953-18.16376l-4.83472-512.75626c-.09338-9.89957-8.26971-17.99922-18.16974-17.99922h0Z"/></g><g><path class="cf" d="M144.43988,560.49841c-9.56348,0-17.41504-7.78125-17.50293-17.34473L122.20258,25.51746c-.04248-4.65332,1.74219-9.0415,5.02588-12.35547,3.28418-3.31396,7.65527-5.13916,12.30908-5.13916H481.69232c9.65234,0,17.57617,7.85205,17.66504,17.50342l4.7334,514.26123c.04297,4.6543-1.74316,9.05957-5.02734,12.4043-3.28516,3.34375-7.65723,5.20898-12.31152,5.25098l-342.31201,3.05566Z"/><path class="dy" d="M481.69189,8.52271c9.37891,0,17.07941,7.62993,17.16571,17.00842l4.73279,514.2608c.04156,4.52069-1.69287,8.79993-4.88385,12.04932-3.19092,3.24939-7.43799,5.06116-11.95874,5.1015l-342.15601,3.05469-.15256,.00061c-9.29001,0-16.91714-7.55811-17.00214-16.84839L122.7023,25.51277c-.04129-4.51907,1.69235-8.78036,4.88159-11.99893,3.18927-3.21857,7.43457-4.99113,11.95386-4.99113H481.69189m0-1H139.53775c-9.90002,0-17.92593,8.09964-17.83536,17.99921l4.73477,517.63684c.09009,9.84583,8.17511,17.83929,18.00208,17.83929,.05368,0,.10809-.00024,.16187-.00073l342.15561-3.05463c9.8996-.08832,17.92474-8.26038,17.83362-18.15997l-4.73279-514.2608c-.09106-9.89957-8.26556-17.99921-18.16565-17.99921h0Z"/></g><g><path class="ce" d="M141.69183,563.43787c-9.56592,0-17.41748-7.78223-17.50293-17.34863L119.55609,27.02234c-.0415-4.65381,1.74463-9.0415,5.0293-12.35596,3.28467-3.31396,7.65625-5.13916,12.31006-5.13916H479.82025c9.65234,0,17.5752,7.85205,17.66211,17.50391l4.63086,515.76514c.04199,4.6543-1.74414,9.05957-5.03027,12.40332-3.28516,3.34375-7.65723,5.20801-12.31152,5.24805l-343.07959,2.99023Z"/><path class="fc" d="M479.82043,10.02725c9.37878,0,17.07739,7.62985,17.16162,17.00829l4.6308,515.7653c.04059,4.52069-1.69489,8.7995-4.8866,12.04822s-7.43915,5.05945-11.9599,5.099l-342.92557,2.98877-.14993,.00073c-9.29208,0-16.91907-7.55981-17.00192-16.85211L120.05621,27.01761c-.04028-4.51915,1.69427-8.7805,4.88434-11.99915,3.19009-3.21864,7.43579-4.99121,11.95508-4.99121H479.82043m0-1H136.89563c-9.89999,0-17.9277,8.09964-17.83936,17.99928l4.63272,519.06789c.0878,9.84705,8.17322,17.84308,18.00186,17.84308,.05246,0,.1055-.00024,.15805-.00067l342.92618-2.98889c9.8996-.0863,17.92657-8.25653,17.83771-18.15613l-4.6308-515.76527c-.08887-9.89964-8.2616-17.99928-18.16156-17.99928h0Z"/></g><g><path class="ch" d="M138.94281,566.37732c-9.56787,0-17.41895-7.78418-17.50195-17.35156L116.9101,28.52673c-.04053-4.65381,1.74658-9.04199,5.03223-12.35596s7.65771-5.13916,12.31104-5.13916H477.94916c9.65137,0,17.57227,7.85205,17.65723,17.50391l4.5293,517.26953c.04004,4.6543-1.74707,9.05957-5.0332,12.40234-3.28613,3.34375-7.65918,5.20703-12.3125,5.24609l-343.84717,2.92383Z"/><path class="ft" d="M477.94897,11.5318c9.37854,0,17.07538,7.62979,17.15759,17.00807l4.52869,517.26976c.03955,4.52075-1.69678,8.79919-4.88922,12.04718-3.19244,3.24805-7.44031,5.05798-11.96106,5.0965l-343.69659,2.92303-.14578,.00067c-9.29401,0-16.92099-7.5614-17.00192-16.85565L117.4101,28.52237c-.03928-4.51915,1.69629-8.78058,4.88715-11.99928,3.19077-3.21864,7.43692-4.99129,11.95621-4.99129H477.94897m0-1H134.25345c-9.89993,0-17.92941,8.09964-17.84329,17.99928l4.53058,520.49901c.08569,9.84821,8.1716,17.84692,18.00186,17.84692,.05127,0,.10278-.00018,.15414-.00067l343.69672-2.9231c9.89966-.08423,17.92841-8.25281,17.84174-18.1524l-4.52869-517.26976c-.08667-9.89964-8.25763-17.99928-18.15753-17.99928h0Z"/></g><g><path class="cg" d="M136.19427,569.31677c-9.56934,0-17.4209-7.78516-17.50195-17.35449L114.2641,30.03113c-.03955-4.65332,1.74854-9.04102,5.03467-12.35547,3.28613-3.31396,7.65869-5.13916,12.3125-5.13916H476.07709c9.65137,0,17.57129,7.85205,17.6543,17.50342l4.42578,518.77393c.04004,4.6543-1.74805,9.05859-5.03516,12.40137-3.28613,3.34277-7.66016,5.20508-12.31445,5.24316l-344.61328,2.8584Z"/><path class="fv" d="M476.07739,13.03632c9.37854,0,17.07361,7.62971,17.15369,17.00786l4.42657,518.77419c.03857,4.52081-1.69873,8.79895-4.89197,12.04633-3.19312,3.24738-7.44135,5.05634-11.9621,5.09387l-344.46759,2.85736-.14178,.00055c-9.29587,0-16.92288-7.56299-17.00186-16.85919L114.76398,30.02718c-.03827-4.51921,1.69821-8.78072,4.8898-11.99944,3.19156-3.21878,7.4382-4.99142,11.95758-4.99142H476.07739m0-1H131.61136c-9.90002,0-17.9313,8.09972-17.84729,17.99936l4.42834,521.93008c.08365,9.84949,8.16992,17.85071,18.0018,17.85071,.05005,0,.10019-.00024,.15036-.00067l344.46725-2.85724c9.89966-.08215,17.93024-8.24902,17.8457-18.14868l-4.42651-518.7742c-.08453-9.89964-8.2536-17.99936-18.15363-17.99936h0Z"/></g><g><path class="cj" d="M133.44574,572.25623c-9.57178,0-17.42236-7.78711-17.50146-17.3584L111.6181,31.5365c-.03857-4.65381,1.75049-9.04199,5.03711-12.35596,3.28711-3.31445,7.66016-5.13965,12.31396-5.13965H474.20599c9.65234,0,17.56934,7.85205,17.64941,17.50391l4.32422,520.27783c.03906,4.6543-1.75,9.05859-5.03809,12.40039-3.28711,3.3418-7.66113,5.20312-12.31543,5.24121l-345.38037,2.79199Z"/><path class="fp" d="M474.20587,14.54089c9.37836,0,17.07166,7.62964,17.14966,17.00764l4.32446,520.27873c.03766,4.52075-1.70062,8.79846-4.89453,12.04523-3.19385,3.2467-7.4425,5.05487-11.96332,5.09137l-345.23712,2.79138-.13937,.00055c-9.29785,0-16.92462-7.56458-17.0015-16.86267L112.11801,31.53197c-.03741-4.51921,1.70007-8.78072,4.89243-11.99957,3.19229-3.21878,7.43936-4.9915,11.9588-4.9915H474.20587m0-1H128.96924c-9.89999,0-17.93307,8.09972-17.85123,17.99936l4.32614,523.36111c.08145,9.85138,8.16714,17.85449,18.00153,17.85449,.04828,0,.09836-.00024,.1467-.00061l345.23788-2.79138c9.8996-.08002,17.93207-8.24524,17.84973-18.1449l-4.32446-520.27872c-.0824-9.89964-8.24963-17.99936-18.14966-17.99936h0Z"/></g><g><path class="ci" d="M130.6972,575.19568c-9.57324,0-17.42432-7.78906-17.50146-17.3623L108.97211,33.04089c-.0376-4.65381,1.75244-9.04199,5.04053-12.35645,3.2876-3.31396,7.66113-5.13916,12.31445-5.13916H472.33392c9.65234,0,17.56836,7.85205,17.64648,17.50342l4.22168,521.78271c.03809,4.6543-1.75293,9.05859-5.04102,12.39941s-7.66211,5.20117-12.31641,5.23828l-346.14746,2.72656Z"/><path class="fo" d="M472.33441,16.04541c9.3783,0,17.06982,7.62958,17.14563,17.00751l4.22235,521.78314c.03656,4.52081-1.70264,8.79816-4.89722,12.04419-3.19464,3.24609-7.44373,5.05341-11.96448,5.08893l-346.00809,2.72552-.13535,.00055c-9.29971,0-16.92657-7.5661-17.00143-16.86621L109.47198,33.03677c-.03638-4.51929,1.70206-8.78093,4.89514-11.99979,3.19305-3.21886,7.44055-4.99158,11.95999-4.99158H472.33441m0-1H126.32712c-9.89999,0-17.93478,8.09972-17.85513,17.99944l4.22385,524.79231c.07935,9.85248,8.16547,17.85809,18.00146,17.85809,.04706,0,.09576-.00018,.14288-.00055l346.00839-2.72552c9.89966-.078,17.9339-8.24158,17.85382-18.14117l-4.22235-521.78316c-.08008-9.89972-8.24567-17.99944-18.14563-17.99944h0Z"/></g><g><path class="ck" d="M127.94818,578.13513c-9.57471,0-17.42529-7.79102-17.50049-17.36621L106.32611,34.54529c-.03662-4.65332,1.75439-9.0415,5.04248-12.35547,3.28857-3.31445,7.6626-5.13965,12.31641-5.13965H470.46283c9.65137,0,17.56543,7.85156,17.6416,17.50293l4.12012,523.28809c.03711,4.6543-1.75391,9.05762-5.04297,12.39746-3.28906,3.34082-7.66406,5.2002-12.31836,5.23633l-346.91504,2.66016Z"/><path class="fs" d="M470.46283,17.54993c9.37817,0,17.06793,7.62944,17.14185,17.00729l4.12006,523.28763c.03564,4.52087-1.70453,8.79791-4.8999,12.04327-3.19531,3.24536-7.44476,5.05182-11.96552,5.08643l-346.77908,2.65961-.13129,.00049c-9.30179,0-16.92859-7.56769-17.00137-16.86969L106.82593,34.54158c-.03543-4.51936,1.70401-8.78108,4.89786-12,3.19385-3.21893,7.44171-4.99165,11.96121-4.99165H470.46283m0-1H123.685c-9.89999,0-17.93655,8.09979-17.85907,17.99951l4.12164,526.22333c.07715,9.85376,8.1637,17.86194,18.00134,17.86194,.04584,0,.09317-.00018,.1391-.00055l346.77893-2.65961c9.89972-.07593,17.93573-8.23773,17.85779-18.13757l-4.12006-523.28761c-.078-9.89964-8.24182-17.99944-18.14185-17.99944h0Z"/></g><g><path class="ca" d="M125.20013,581.07361c-9.57715,0-17.42773-7.79102-17.50098-17.36914L103.68011,36.05017c-.03565-4.65332,1.75635-9.0415,5.04541-12.35596s7.66357-5.13965,12.31738-5.13965H468.59174c9.65137,0,17.56348,7.85205,17.6377,17.50342l4.01758,524.79199c.03613,4.6543-1.75586,9.05664-5.0459,12.39648s-7.66504,5.19824-12.31934,5.2334l-347.68164,2.59375Z"/><path class="ey" d="M468.59137,19.05449c9.37805,0,17.06604,7.62935,17.13782,17.00714l4.01788,524.79213c.03461,4.52081-1.70648,8.79742-4.90253,12.04218-3.19598,3.24469-7.44586,5.05023-11.96667,5.08398l-347.55005,2.59363-.12741,.00049c-9.30365,0-16.93036-7.56934-17.00122-16.87335L104.17996,36.04634c-.03442-4.51936,1.70587-8.78107,4.90042-12.00008,3.19458-3.21899,7.44293-4.99178,11.96252-4.99178H468.59137m0-1H121.04291c-9.90009,0-17.93835,8.09978-17.86295,17.9995l4.01923,527.65433c.07507,9.8551,8.16196,17.86572,18.00119,17.86572,.04465,0,.09073-.00012,.13544-.00049l347.5495-2.59363c9.89972-.07391,17.9375-8.23413,17.86176-18.13379l-4.01788-524.79214c-.07581-9.89972-8.23779-17.9995-18.13782-17.9995h0Z"/></g><g><path class="c`" d="M122.45306,584.01404c-9.57959,0-17.43115-7.79395-17.50244-17.37402l-3.9165-529.08545c-.03467-4.65332,1.7583-9.0415,5.04834-12.35596s7.66455-5.13965,12.31836-5.13965H466.71967c9.65234,0,17.5625,7.85205,17.63379,17.50342l3.916,526.29639c.0342,4.6543-1.75877,9.05664-5.04881,12.39648-3.29102,3.33887-7.66602,5.19629-12.32129,5.23047l-348.44629,2.52832Z"/><path class="fk" d="M466.71985,20.55904c9.37793,0,17.06421,7.62929,17.13397,17.00693l3.91553,526.29665c.03363,4.52087-1.70844,8.79712-4.90515,12.0412-3.19672,3.24402-7.44696,5.04865-11.96783,5.08142l-348.31927,2.52777-.12494,.00049c-9.30573,0-16.93243-7.57092-17.00128-16.87689l-3.91687-529.08548c-.03348-4.51942,1.70779-8.78122,4.90317-12.00021,3.19528-3.21907,7.444-4.99187,11.96356-4.99187H466.71985m0-1H118.40073c-9.89999,0-17.94,8.09979-17.86673,17.99951l3.91687,529.08549c.07297,9.85626,8.16034,17.86938,18.00125,17.86938,.04346,0,.08804-.00012,.13153-.00043l348.31998-2.52777c9.89984-.07178,17.93933-8.23035,17.86572-18.13007l-3.91553-526.29662c-.07367-9.89972-8.23395-17.99951-18.13397-17.99951h0Z"/></g><g><path class="cc" d="M119.70453,586.95251c-9.58154,0-17.43311-7.79492-17.50195-17.37695l-3.81445-530.51562c-.03369-4.65381,1.76025-9.04248,5.05078-12.35693,3.29102-3.31445,7.66602-5.13965,12.31982-5.13965H464.84857c9.65137,0,17.56055,7.85205,17.62988,17.50342l3.81348,527.80176c.0332,4.6543-1.76074,9.05566-5.05176,12.39453-3.29102,3.33789-7.66699,5.19531-12.32227,5.22754l-349.21338,2.46191Z"/><path class="fr" d="M464.84839,22.0636c9.37781,0,17.06232,7.62921,17.13,17.00671l3.81323,527.80109c.03265,4.52081-1.71021,8.79681-4.90771,12.04022-3.19745,3.24341-7.448,5.04718-11.96887,5.07904l-349.09036,2.46167-.12122,.00043c-9.30743,0-16.93405-7.57245-17.00101-16.88025l-3.81442-530.51663c-.0325-4.5195,1.70972-8.78128,4.90579-12.00043,3.19601-3.21907,7.44522-4.99185,11.96478-4.99185H464.84839m0-1H115.75861c-9.89999,0-17.94171,8.09978-17.87057,17.9995l3.81442,530.51662c.07092,9.85748,8.15848,17.87305,18.00104,17.87305l.12796-.00043,349.09067-2.46167c9.89972-.06976,17.94098-8.22668,17.86951-18.12653l-3.81323-527.80104c-.07147-9.89972-8.23004-17.9995-18.13-17.9995h0Z"/></g><g><path class="cd" d="M116.95551,589.89197c-9.58301,0-17.43408-7.79688-17.50146-17.38086l-3.71191-531.94678c-.03271-4.65381,1.76172-9.04199,5.05322-12.35645s7.66699-5.13965,12.32129-5.13965H462.9765c9.65234,0,17.55957,7.85156,17.62695,17.50293l3.70996,529.30615c.0332,4.65332-1.76172,9.05469-5.05371,12.39355-3.29199,3.33789-7.66797,5.19336-12.32227,5.22559l-349.98193,2.39551Z"/><path class="fn" d="M462.97687,23.56812c9.37769,0,17.06049,7.62914,17.1261,17.00656l3.71088,529.30563c.03174,4.52081-1.71216,8.79645-4.91028,12.03918-3.19806,3.24274-7.44916,5.04572-11.96991,5.0766l-349.8613,2.39563-.11728,.00049c-9.30945,0-16.9361-7.57404-17.00101-16.88379l-3.71201-531.94774c-.03159-4.5195,1.71164-8.78143,4.90836-12.00058,3.19678-3.21913,7.44644-4.99199,11.96606-4.99199H462.97687m0-1H113.11649c-9.89999,0-17.94348,8.09985-17.87442,17.99957l3.71201,531.94769c.06879,9.8587,8.15683,17.87677,18.00101,17.87677,.04105,0,.0831-.00012,.12421-.00043l349.86121-2.39563c9.89972-.06787,17.94269-8.22308,17.87335-18.12274l-3.71088-529.30566c-.06934-9.8998-8.22601-17.99957-18.1261-17.99957h0Z"/></g><g><path class="cb" d="M114.20746,592.83142c-9.58545,0-17.43652-7.79785-17.50195-17.38379l-3.60938-533.37891c-.03125-4.65381,1.76416-9.04199,5.05615-12.35645,3.29248-3.31445,7.66846-5.13965,12.32227-5.13965H461.10541c9.65137,0,17.55664,7.85156,17.62207,17.50293l3.6084,530.80957c.03125,4.65527-1.76465,9.05664-5.05664,12.39355-3.29297,3.33691-7.66895,5.19141-12.32324,5.22266l-350.74854,2.33008Z"/><path class="fl" d="M461.10535,25.07269c9.37756,0,17.05859,7.62901,17.12238,17.00636l3.6084,530.81004c.0307,4.52087-1.71399,8.79608-4.91278,12.03827-3.19879,3.24207-7.45026,5.04413-11.97107,5.07422l-350.63239,2.32947-.11334,.00043c-9.31131,0-16.93787-7.57556-17.00085-16.88721l-3.60953-533.37878c-.03064-4.51958,1.7135-8.78151,4.91095-12.00072,3.19748-3.21915,7.44757-4.99208,11.96729-4.99208H461.10535m0-1H110.4744c-9.89999,0-17.94522,8.09979-17.87823,17.99957l3.60953,533.37878c.06671,9.85992,8.155,17.88043,18.00082,17.88043l.12051-.00043,350.63184-2.32947c9.89984-.06586,17.94452-8.21948,17.87726-18.11926l-3.6084-530.81006c-.06732-9.89978-8.22235-17.99957-18.12238-17.99957h0Z"/></g><g><path class="bt" d="M111.45844,595.77087c-9.58789,0-17.43848-7.7998-17.50098-17.38672l-3.50732-534.81055c-.03076-4.65381,1.76611-9.04199,5.05908-12.35645,3.29248-3.31494,7.66895-5.14014,12.32324-5.14014H459.23431c9.65137,0,17.55469,7.85205,17.61816,17.50342l3.50586,532.31348c.03027,4.65527-1.76562,9.05566-5.05957,12.39258-3.29297,3.33594-7.66992,5.19043-12.32422,5.2207l-351.51611,2.26367Z"/><path class="fq" d="M459.23383,26.57719c9.37744,0,17.05682,7.62892,17.11859,17.00621l3.50592,532.31454c.02979,4.52087-1.71594,8.79584-4.91541,12.03723-3.19952,3.24152-7.45129,5.04266-11.97217,5.07178l-351.40143,2.26343-.11127,.00037c-9.31329,0-16.93985-7.57709-17.00085-16.89062l-3.50693-534.80986c-.02966-4.51965,1.71533-8.78165,4.91357-12.00087,3.19821-3.21928,7.4487-4.9922,11.96841-4.9922H459.23383m0-1H107.83228c-9.89999,0-17.94693,8.09985-17.88199,17.99963l3.50693,534.80989c.06467,9.86115,8.15335,17.88403,18.00082,17.88403l.11688-.00037,351.40231-2.26343c9.89978-.06378,17.94623-8.21576,17.8811-18.11554l-3.50592-532.31459c-.06519-9.89978-8.21857-17.99963-18.11859-17.99963h0Z"/></g><g><path class="bs" d="M108.70844,598.70935c-9.58887,0-17.43897-7.80078-17.49951-17.38965l-3.4043-536.24121c-.02979-4.6543,1.76758-9.04248,5.06104-12.35693s7.67041-5.13965,12.32422-5.13965H457.36224c9.65137,0,17.55371,7.85156,17.61523,17.50293l3.40332,533.81885c.0293,4.6543-1.76855,9.05469-5.0625,12.39062s-7.6709,5.18848-12.3252,5.21777l-352.28467,2.19727Z"/><path class="el" d="M457.36237,28.08177c9.37738,0,17.05499,7.62886,17.11475,17.00601l3.40338,533.81902c.02887,4.52094-1.71771,8.79547-4.91791,12.03625-3.20013,3.24084-7.45233,5.04114-11.97321,5.0694l-352.17242,2.19727-.10751,.00037c-9.31506,0-16.94156-7.57867-17.00064-16.89404l-3.40442-536.24098c-.02872-4.51971,1.71719-8.78171,4.91614-12.00107,3.19891-3.21928,7.4498-4.99222,11.96957-4.99222H457.36237m0-1H105.19009c-9.89999,0-17.94858,8.09979-17.88571,17.99965l3.40442,536.24103c.06256,9.8623,8.15161,17.88763,18.00064,17.88763l.11322-.00037,352.17294-2.19727c9.89984-.06183,17.948-8.21216,17.88489-18.112l-3.40338-533.81903c-.06311-9.89986-8.21478-17.99965-18.11475-17.99965h0Z"/></g><g><path class="bu" d="M105.96136,601.6488c-9.59131,0-17.44238-7.80273-17.50098-17.39355l-3.30176-537.67236c-.02881-4.65381,1.76953-9.04199,5.06348-12.35645,3.29443-3.31494,7.67188-5.14014,12.32568-5.14014H455.49115c9.65137,0,17.55176,7.85156,17.61035,17.50244l3.30078,535.32373c.0293,4.6543-1.76953,9.05469-5.06445,12.38965-3.29492,3.33594-7.67285,5.1875-12.32715,5.21582l-353.04932,2.13086Z"/><path class="er" d="M455.49084,29.58627c9.37726,0,17.05316,7.62877,17.11096,17.00584l3.3009,535.32359c.02789,4.52087-1.71954,8.79504-4.92041,12.03516-3.20093,3.24023-7.45343,5.03973-11.9743,5.06702l-352.94391,2.13116-.10324,.00031c-9.31693,0-16.94339-7.58014-17.00052-16.89746l-3.30185-537.67207c-.02777-4.5197,1.71906-8.78185,4.91876-12.00124,3.19962-3.21931,7.45093-4.99231,11.97076-4.99231H455.49084m0-1H102.548c-9.89999,0-17.95032,8.09985-17.88953,17.99969l3.30185,537.67209c.06055,9.86359,8.14984,17.8913,18.00049,17.8913l.10965-.00031,352.94357-2.13116c9.89984-.05981,17.94977-8.20856,17.88867-18.10828l-3.3009-535.32364c-.06104-9.89984-8.21094-17.99969-18.11096-17.99969h0Z"/></g><g><path class="cm" d="M103.21283,604.58826c-9.59326,0-17.44434-7.80469-17.50098-17.39746l-3.19922-539.10303c-.02783-4.6543,1.77197-9.04297,5.06689-12.35742s7.67236-5.13965,12.32617-5.13965H453.61908c9.65137,0,17.55078,7.85156,17.60742,17.50293l3.19824,536.82764c.05664,9.64941-7.74609,17.5459-17.39551,17.60254l-353.81641,2.06445Z"/><path class="fw" d="M453.61932,31.09084c9.37708,0,17.05139,7.62869,17.10724,17.00562l3.1983,536.82811c.02692,4.52087-1.72144,8.79474-4.92297,12.0343-3.20154,3.2395-7.45447,5.03815-11.97534,5.06451l-353.71484,2.065-.09921,.00031c-9.31894,0-16.9454-7.58167-17.0007-16.90082l-3.19916-539.10326c-.02682-4.51978,1.72092-8.782,4.92133-12.00139,3.20038-3.21939,7.45206-4.99239,11.97192-4.99239H453.61932m0-1H99.90588c-9.90002,0-17.95193,8.09985-17.89325,17.99969l3.19916,539.10326c.05856,9.86469,8.14832,17.8949,18.0007,17.8949l.10583-.00031,353.71408-2.065c9.89978-.05774,17.95135-8.2049,17.89246-18.1048l-3.1983-536.82805c-.05902-9.89984-8.20721-17.99969-18.10724-17.99969h0Z"/></g><g><path class="cl" d="M100.46429,607.52771c-9.59521,0-17.44629-7.80566-17.50098-17.40137l-3.09668-540.53418c-.02686-4.65381,1.77344-9.04199,5.06934-12.35645,3.29541-3.31494,7.67383-5.14014,12.32764-5.14014H451.74799c9.65137,0,17.54785,7.85156,17.60352,17.50244l3.0957,538.33301c.02637,4.6543-1.77441,9.05371-5.07031,12.38672-3.2959,3.33398-7.6748,5.18457-12.3291,5.21094l-354.5835,1.99902Z"/><path class="fj" d="M451.7478,32.59541c9.37701,0,17.04962,7.62862,17.10358,17.00546l3.09558,538.33253c.026,4.52087-1.72321,8.79437-4.92535,12.03333-3.20227,3.23883-7.45557,5.03668-11.97638,5.06213l-354.48364,1.99878-.09763,.00031c-9.32083,0-16.94739-7.58313-17.00067-16.90417l-3.09641-540.53444c-.02591-4.51978,1.72269-8.78192,4.92371-12.00139,3.20108-3.21945,7.45322-4.99254,11.97314-4.99254H451.7478m0-1H97.26373c-9.89999,0-17.95361,8.09985-17.89685,17.99969l3.09641,540.53441c.05649,9.86591,8.14667,17.89844,18.00064,17.89844l.1022-.00031,354.48471-1.99878c9.89984-.05585,17.95306-8.20135,17.89612-18.1012l-3.09558-538.33257c-.05695-9.89984-8.20355-17.99969-18.10358-17.99969h0Z"/></g><g><path class="cn" d="M97.71527,610.46716c-9.59668,0-17.44727-7.80762-17.50049-17.40527l-2.99365-541.96533c-.02588-4.65381,1.77539-9.04199,5.07178-12.35645s7.6748-5.14014,12.32861-5.14014H449.87592c9.65039,0,17.5459,7.85156,17.60059,17.50244l2.99219,539.8374c.02637,4.6543-1.77539,9.05273-5.07227,12.38672-3.29688,3.33301-7.67578,5.18262-12.33008,5.20801l-355.35107,1.93262Z"/><path class="fh" d="M449.87628,34.09995c9.37689,0,17.04785,7.62854,17.09985,17.00523l2.99304,539.83708c.02502,4.52094-1.7251,8.79407-4.92804,12.03229-3.20282,3.23834-7.45654,5.03522-11.97742,5.05981l-355.25449,1.93256-.09384,.00024c-9.32263,0-16.9491-7.58466-17.00061-16.90759l-2.99371-541.96547c-.02499-4.51985,1.72455-8.78207,4.9263-12.00162,3.20178-3.21945,7.45432-4.99254,11.97424-4.99254H449.87628m0-1H94.62161c-9.89999,0-17.95523,8.09985-17.90054,17.99969l2.99371,541.96548c.0545,9.86719,8.14499,17.9021,18.00061,17.9021l.09854-.00031,355.25522-1.93256c9.89984-.05377,17.95483-8.19781,17.90002-18.09766l-2.99304-539.83707c-.05493-9.89984-8.19983-17.99969-18.09985-17.99969h0Z"/></g><g><path class="d`" d="M94.96722,613.40662c-9.59912,0-17.44971-7.80957-17.50098-17.40918l-2.89111-543.39551c-.0249-4.6543,1.77734-9.04297,5.07422-12.35742,3.29736-3.31445,7.67627-5.14014,12.33008-5.14014H448.00482c9.65137,0,17.54395,7.85156,17.5957,17.50244l2.89062,541.3418c.02441,4.6543-1.77734,9.05273-5.0752,12.38574-3.29688,3.33203-7.67676,5.18066-12.33105,5.20508l-356.11768,1.86719Z"/><path class="fi" d="M448.00476,35.60451c9.37677,0,17.04608,7.62846,17.09619,17.005l2.89032,541.3416c.02411,4.52094-1.72687,8.7937-4.93042,12.03131-3.20361,3.23773-7.4577,5.03375-11.97852,5.0575l-356.02554,1.86627-.09009,.00024c-9.32452,0-16.95093-7.58624-17.00046-16.91095l-2.89099-543.39659c-.02408-4.51991,1.72638-8.78215,4.92877-12.00169,3.20251-3.2196,7.45544-4.99269,11.97546-4.99269H448.00476m0-1H91.97949c-9.90002,0-17.95694,8.09985-17.90424,17.99969l2.89099,543.39659c.05246,9.86847,8.14322,17.90564,18.00046,17.90564l.095-.00024,356.02588-1.86627c9.89984-.05194,17.95648-8.19427,17.90369-18.09412l-2.89032-541.3416c-.05286-9.89984-8.19611-17.99969-18.09619-17.99969h0Z"/></g><g><path class="co" d="M92.2182,616.34509c-9.60059,0-17.45117-7.81055-17.50049-17.41113l-2.78809-544.82764c-.02393-4.65381,1.7793-9.04248,5.07666-12.35693,3.29785-3.31494,7.67676-5.14014,12.33105-5.14014H446.13373c9.65039,0,17.54199,7.85156,17.5918,17.50195l2.78809,542.84619c.02344,4.6543-1.7793,9.05273-5.07715,12.38477-3.29883,3.33203-7.67871,5.17969-12.33301,5.20312l-356.88525,1.7998Z"/><path class="fm" d="M446.1333,37.10904c9.37665,0,17.04431,7.62839,17.09247,17.00493l2.78754,542.84599c.02319,4.52094-1.7287,8.7934-4.93286,12.0304-3.20422,3.237-7.45862,5.03229-11.97955,5.05505l-356.79645,1.79999-.0864,.00024c-9.32639,0-16.9527-7.58777-17.0004-16.91437l-2.78821-544.82755c-.02316-4.51999,1.72821-8.78238,4.93137-12.002,3.20325-3.2196,7.45654-4.99269,11.97656-4.99269H446.1333m0-1H89.33737c-9.90002,0-17.95856,8.09985-17.90793,17.99977l2.78821,544.82759c.05048,9.86969,8.14151,17.90924,18.00037,17.90924l.09149-.00024,356.79645-1.79999c9.89984-.04993,17.95807-8.19067,17.90735-18.09058l-2.78754-542.84602c-.05084-9.89992-8.19238-17.99977-18.09247-17.99977h0Z"/></g><g><path class="cq" d="M89.46967,619.28455c-9.60303,0-17.45361-7.8125-17.50049-17.41406l-2.68555-546.25977c-.02295-4.65381,1.78125-9.04248,5.07959-12.35742,3.29834-3.31445,7.67822-5.13965,12.33203-5.13965H444.26166c9.65137,0,17.54102,7.85156,17.58887,17.50195l2.68457,544.35156c.02344,4.6543-1.78125,9.05176-5.08008,12.38281-3.29883,3.33203-7.67871,5.17871-12.33301,5.20117l-357.65234,1.7334Z"/><path class="fa" d="M444.26178,38.61357c9.37653,0,17.0426,7.62831,17.08881,17.0047l2.68481,544.3506c.02228,4.52094-1.73047,8.79303-4.9353,12.02942-3.20496,3.23639-7.45972,5.03076-11.98065,5.05267l-357.56738,1.7337-.08261,.00024c-9.32816,0-16.95453-7.58923-17.0004-16.91772l-2.68536-546.25876c-.02225-4.52,1.72998-8.78239,4.93393-12.00209,3.20383-3.2196,7.45761-4.99277,11.9776-4.99277H444.26178m0-1H86.69522c-9.89999,0-17.96014,8.09993-17.91153,17.99977l2.68536,546.25879c.04855,9.87091,8.13977,17.91272,18.00037,17.91272l.08795-.00018,357.56696-1.7337c9.8999-.04803,17.95984-8.18713,17.91107-18.08698l-2.68481-544.35065c-.04883-9.89984-8.18872-17.99977-18.08881-17.99977h0Z"/></g><g><path class="dh" d="M86.72113,622.224c-9.60498,0-17.45557-7.81348-17.50049-17.41797l-2.58252-547.69043c-.02197-4.65381,1.78271-9.04248,5.08154-12.35742,3.29932-3.31445,7.6792-5.14014,12.3335-5.14014H442.39056c9.65039,0,17.53906,7.85156,17.58496,17.50244l2.58203,545.85449c.02246,4.6543-1.7832,9.05176-5.08203,12.38281-3.2998,3.33105-7.68066,5.17676-12.33496,5.19922l-358.41943,1.66699Z"/><path class="fb" d="M442.39026,40.11807c9.37646,0,17.04077,7.62823,17.08521,17.00455l2.58191,545.85516c.02136,4.52081-1.73218,8.7926-4.93768,12.02838-3.20557,3.23578-7.46082,5.02936-11.98163,5.05048l-358.33847,1.66718-.07892,.00024c-9.32999,0-16.95624-7.59076-17.00024-16.92096l-2.58246-547.68987c-.0213-4.52008,1.73178-8.78255,4.93631-12.00223,3.20462-3.21977,7.45877-4.99294,11.97885-4.99294H442.39026m0-1H84.05313c-9.89999,0-17.96185,8.09993-17.91516,17.99985l2.58246,547.68982c.04657,9.87213,8.13806,17.91632,18.00027,17.91632l.08444-.00024,358.33755-1.66718c9.8999-.0462,17.96149-8.18378,17.91467-18.08362l-2.58191-545.8551c-.04688-9.89992-8.18518-17.99985-18.08521-17.99985h0Z"/></g><g><path class="ct" d="M83.9726,625.16345c-9.60645,0-17.45752-7.81543-17.50098-17.42188L63.99213,58.62c-.021-4.65381,1.78516-9.04248,5.08496-12.35742,3.2998-3.31445,7.68018-5.14014,12.33398-5.14014H440.51849c9.65137,0,17.53809,7.85156,17.58203,17.50244l2.47852,547.35889c.02148,4.65527-1.78418,9.05273-5.08496,12.38184-3.2998,3.33008-7.68066,5.17578-12.33496,5.19629l-359.18652,1.60156Z"/><path class="ex" d="M440.51874,41.62268c9.37634,0,17.03912,7.62808,17.08154,17.00432l2.47913,547.35963c.02051,4.52087-1.73395,8.79236-4.94012,12.02747-3.20624,3.23511-7.46173,5.02789-11.98267,5.04803l-359.10947,1.60095-.07516,.00012c-9.33185,0-16.95807-7.59222-17.00015-16.92432l-2.47952-549.12097c-.02048-4.52,1.73346-8.78255,4.93869-12.00223,3.20523-3.21977,7.45984-4.99301,11.98001-4.99301H440.51874m0-1H81.41101c-9.90002,0-17.96347,8.09985-17.9187,17.99977l2.47952,549.12102c.04459,9.87335,8.13641,17.9198,18.00018,17.9198l.0809-.00018,359.10815-1.60095c9.8999-.04413,17.96326-8.18011,17.91833-18.08008l-2.47913-547.3596c-.0448-9.89992-8.18146-17.99977-18.08154-17.99977h0Z"/></g><g><path class="cw" d="M81.22211,628.10193c-9.60742,0-17.45752-7.81641-17.49902-17.4248L61.34662,60.12488c-.02002-4.65381,1.78613-9.04248,5.08643-12.35693,3.30078-3.31494,7.68164-5.14062,12.33594-5.14062H438.6474c9.65039,0,17.53613,7.85107,17.57812,17.50146l2.37598,548.86475c.02051,4.6543-1.78711,9.05078-5.08789,12.38086-3.30078,3.3291-7.68164,5.17383-12.33594,5.19336l-359.95557,1.53418Z"/><path class="eg" d="M438.64728,43.12721c9.37622,0,17.03741,7.62808,17.07794,17.00417l2.37616,548.86404c.01959,4.52094-1.73572,8.79211-4.94244,12.02655-3.20685,3.23456-7.46271,5.02649-11.98364,5.04578l-359.87753,1.53448-.0744,.00012c-9.33362,0-16.95984-7.59369-17.00015-16.92755L61.84653,60.12276c-.01953-4.52016,1.73538-8.78278,4.94131-12.00253,3.2059-3.21977,7.46085-4.99301,11.98099-4.99301H438.64728m0-1H78.76883c-9.89999,0-17.965,8.09993-17.9223,17.99985l2.37668,550.55208c.0426,9.87457,8.13467,17.92322,18.00015,17.92322l.07739-.00012,359.87875-1.53448c9.89996-.04224,17.96478-8.1767,17.92188-18.0766l-2.37616-548.86409c-.04285-9.89992-8.17792-17.99985-18.07794-17.99985h0Z"/></g><g><path class="cy" d="M78.47504,631.04138c-9.60986,0-17.46045-7.81836-17.50049-17.42871L58.70111,61.62976c-.01953-4.6543,1.78809-9.04297,5.08936-12.35791,3.30078-3.31445,7.68213-5.14014,12.33643-5.14014H436.77533c9.65137,0,17.53516,7.85156,17.5752,17.50195l2.27246,550.36865c.04004,9.64844-7.77734,17.53125-17.42676,17.57129l-360.72119,1.46777Z"/><path class="eh" d="M436.77582,44.63174c9.37616,0,17.03558,7.62793,17.07428,17.00401l2.27332,550.36864c.01874,4.52087-1.73755,8.79169-4.94501,12.02551-3.20746,3.23395-7.46368,5.02502-11.98462,5.0434l-360.64844,1.46814-.07068,.00018c-9.33539,0-16.96161-7.59515-17.00009-16.93085L59.2009,61.62744c-.01862-4.52016,1.73706-8.78276,4.9437-12.00261,3.2066-3.21985,7.46201-4.99309,11.98215-4.99309H436.77582m0-1H76.12674c-9.89999,0-17.96661,8.09993-17.92584,17.99985l2.27368,551.98334c.04068,9.87567,8.13297,17.92664,18.00006,17.92664l.07388-.00012,360.64935-1.46814c9.89996-.04022,17.96643-8.17316,17.92554-18.07312l-2.27332-550.36859c-.04083-9.89992-8.17426-17.99985-18.07428-17.99985h0Z"/></g><g><path class="cp" d="M75.7265,633.98083c-9.6123,0-17.46289-7.82031-17.50049-17.43262L56.05511,63.13416c-.01807-4.6543,1.79053-9.04297,5.09229-12.35791,3.30176-3.31445,7.68311-5.14014,12.3374-5.14014H434.90424c9.65039,0,17.5332,7.85156,17.57129,17.50195l2.16992,551.87305c.01855,4.6543-1.79004,9.05078-5.09277,12.37891-3.30176,3.32812-7.68359,5.1709-12.33789,5.18848l-361.48828,1.40234Z"/><path class="ef" d="M434.90424,46.13625c9.37604,0,17.03406,7.62793,17.07086,17.00385l2.17035,551.87309c.01776,4.52094-1.73932,8.79138-4.94739,12.02466-3.20819,3.23328-7.46472,5.02356-11.98566,5.04108l-361.41943,1.40161-.06693,.00018c-9.33725,0-16.96356-7.59662-17.00015-16.93408L56.55518,63.13225c-.01767-4.52023,1.73892-8.78291,4.94623-12.00284,3.20734-3.21985,7.46301-4.99316,11.98325-4.99316H434.90424m0-1H73.48465c-9.89999,0-17.96823,8.10001-17.92947,17.99992l2.17072,553.41437c.03876,9.87689,8.13135,17.93018,18.00009,17.93018l.07037-.00018,361.41989-1.40161c9.89996-.03833,17.96802-8.16974,17.9292-18.06964l-2.17035-551.87311c-.03888-9.89992-8.17084-17.99992-18.07086-17.99992h0Z"/></g><g><path class="cr" d="M72.9765,636.91931c-9.61328,0-17.46338-7.82129-17.49951-17.43457l-2.06738-554.84619c-.01758-4.65381,1.7915-9.04248,5.09375-12.35693,3.30273-3.31494,7.68457-5.14062,12.33936-5.14062H433.03314c9.65137,0,17.53125,7.85107,17.56641,17.50146l2.06738,553.37744c.01758,4.6543-1.79199,9.05078-5.09473,12.37793-3.30275,3.32812-7.68457,5.16992-12.33984,5.18652l-362.25586,1.33496Z"/><path class="ee" d="M433.03278,47.64082c9.37585,0,17.03223,7.62778,17.06726,17.00362l2.06732,553.37759c.01685,4.52106-1.74103,8.79108-4.94983,12.02374-3.20868,3.23267-7.46558,5.02216-11.98651,5.03882l-362.19046,1.33514-.06329,.00018c-9.33908,0-16.96524-7.59808-17.00009-16.93738l-2.06763-554.84557c-.01685-4.52029,1.74063-8.78299,4.94864-12.00291,3.20792-3.21992,7.46408-4.99324,11.98428-4.99324H433.03278m0-1H70.84247c-9.89999,0-17.96976,8.09993-17.93292,17.99985l2.06763,554.84554c.03683,9.87817,8.12973,17.93365,18.00009,17.93365l.06683-.00012,362.19064-1.33514c9.89984-.03656,17.96948-8.16632,17.93262-18.06622l-2.06732-553.3777c-.03699-9.89992-8.16724-17.99985-18.06726-17.99985h0Z"/></g><g><path class="cs" d="M70.22748,639.85876c-9.61475,0-17.46484-7.82324-17.49902-17.43848l-1.96436-556.27686c-.0166-4.6543,1.79346-9.04297,5.09668-12.35791,3.30322-3.31445,7.68506-5.14014,12.33936-5.14014H431.16107c9.65137,0,17.53027,7.85107,17.56348,17.50146l1.96484,554.88281c.0166,4.6543-1.79395,9.0498-5.09766,12.37695-3.30273,3.32617-7.68555,5.16797-12.34082,5.18359l-363.02344,1.26855Z"/><path class="es" d="M431.16125,49.14536c9.37573,0,17.03052,7.6277,17.06378,17.00346l1.96417,554.88219c.01605,4.52087-1.74261,8.79065-4.95203,12.02264-3.20941,3.23212-7.46661,5.02081-11.98755,5.03656l-362.9613,1.26868-.05988,.00006c-9.34091,0-16.96707-7.59949-17-16.94061l-1.96454-556.27658c-.0159-4.52031,1.7424-8.78316,4.95102-12.00316,3.20862-3.21992,7.46509-4.99324,11.98538-4.99324H431.16125m0-1H68.20032c-9.89999,0-17.97131,8.09993-17.9364,17.99992l1.96454,556.2766c.03485,9.87878,8.12885,17.93713,18.00003,17.93713l.06345-.00012,362.96118-1.26868c9.8999-.03461,17.97119-8.16284,17.9361-18.06274l-1.96417-554.88219c-.0351-9.89999-8.1637-17.99992-18.06378-17.99992h0Z"/></g><g><path class="cv" d="M67.48041,642.79822c-9.61816,0-17.46875-7.82422-17.50049-17.44238l-1.86182-557.70752c-.01514-4.6543,1.7959-9.04346,5.09961-12.3584,3.30371-3.31445,7.68652-5.14014,12.34033-5.14014H429.28998c9.65137,0,17.52832,7.85107,17.55957,17.50146l1.86133,556.38721c.03223,9.64844-7.79199,17.52539-17.44142,17.55762l-363.78905,1.20215Z"/><path class="f`" d="M429.28973,50.64992c9.37567,0,17.02887,7.62761,17.06024,17.00322l1.86115,556.38672c.01508,4.521-1.74438,8.79034-4.95441,12.02185-3.21002,3.23138-7.46765,5.01929-11.98859,5.03418l-363.73221,1.20209-.05609,.00006c-9.34274,0-16.9689-7.60095-17.00006-16.94379l-1.86145-557.70772c-.01508-4.52039,1.74405-8.78323,4.95337-12.00323,3.20932-3.22008,7.46625-4.99338,11.98654-4.99338H429.28973m0-1H65.55823c-9.89999,0-17.97293,8.09991-17.93991,17.99992l1.86145,557.7077c.03293,9.88007,8.12717,17.94055,18.00009,17.94055l.05991-.00012,363.73172-1.20209c9.8999-.03271,17.97272-8.15942,17.93964-18.05939l-1.86115-556.38666c-.03314-9.90001-8.16022-17.99992-18.06024-17.99992h0Z"/></g><g><path class="dm" d="M64.73041,645.73669c-9.61914,0-17.46924-7.82617-17.49951-17.44531l-1.7583-559.13867c-.01465-4.6543,1.79687-9.04248,5.10107-12.35742,3.30469-3.31494,7.68799-5.14062,12.34229-5.14062H427.41791c9.65039,0,17.52637,7.85107,17.55664,17.50098l1.75879,557.8916c.03027,9.64941-7.79492,17.52441-17.44531,17.55469l-364.55762,1.13477Z"/><path class="et" d="M427.41827,52.15442c9.37555,0,17.02716,7.62753,17.0567,17.00307l1.75806,557.89122c.01428,4.521-1.74603,8.7901-4.95673,12.02094-3.21063,3.23077-7.46863,5.01782-11.98956,5.03192l-364.5033,1.13544-.05261,.00012c-9.34439,0-16.97046-7.60242-16.99985-16.94702l-1.75824-559.13892c-.01422-4.52031,1.74576-8.78316,4.95569-12.00331,3.21002-3.22008,7.46732-4.99345,11.9877-4.99345H427.41827m0-1H62.91614c-9.89999,0-17.97455,8.09999-17.94339,17.99992l1.75824,559.13893c.0311,9.88116,8.1254,17.94385,17.99985,17.94385l.05667-.00012,364.50235-1.13544c9.89996-.03082,17.97437-8.15601,17.94318-18.05597l-1.75806-557.89125c-.03125-9.89993-8.15674-17.99992-18.0567-17.99992h0Z"/></g><g><path class="dd" d="M61.98138,648.67615c-9.62061,0-17.4707-7.82715-17.49902-17.44922l-1.65527-560.56934c-.01367-4.6543,1.79883-9.04297,5.104-12.35791s7.68848-5.14062,12.34277-5.14062H425.54681c9.65039,0,17.52441,7.85107,17.55273,17.50146l1.65527,559.39648c.01367,4.6543-1.79883,9.04785-5.10449,12.37305s-7.68945,5.16309-12.34277,5.17676l-365.32617,1.06934Z"/><path class="ew" d="M425.54675,53.659c9.37543,0,17.02551,7.62746,17.05328,17.00284l1.65491,559.39578c.01343,4.521-1.7478,8.78967-4.95905,12.0199-3.2113,3.23022-7.46973,5.01648-11.9906,5.02972l-365.27286,1.06897-.04941,.00006h-.00067c-9.34631,0-16.97253-7.60388-17.00009-16.95026l-1.65515-560.57002c-.01337-4.52039,1.74747-8.78331,4.95816-12.00346,3.2106-3.22015,7.46829-4.99353,11.98868-4.99353H425.54675m0-1H60.27396c-9.89999,0-17.97607,8.09999-17.94684,17.99992l1.65515,560.57002c.02917,9.88245,8.1239,17.94733,18.00006,17.94733l.05301-.00006,365.27289-1.06897c9.89996-.02893,17.97595-8.15265,17.94672-18.05255l-1.65491-559.39577c-.0293-9.89993-8.1532-17.99992-18.05328-17.99992h0Z"/></g><g><path class="dg" d="M59.2348,651.6156c-9.62354,0-17.4751-7.8291-17.50146-17.45215l-1.55176-562.00146c-.0127-4.6543,1.80078-9.04297,5.10645-12.35791s7.68945-5.14062,12.34375-5.14062H423.67572c9.64941,0,17.52246,7.85107,17.5498,17.50146l1.55078,560.8999c.01367,4.6543-1.7998,9.04883-5.10645,12.37305-3.30566,3.32422-7.68945,5.16211-12.34375,5.1748l-366.09131,1.00293Z"/><path class="ev" d="M423.67523,55.16357c9.37531,0,17.0238,7.62738,17.0498,17.00269l1.5517,560.90021c.01257,4.52094-1.74939,8.78943-4.9613,12.01904s-7.47052,5.01508-11.99152,5.02747l-366.09055,1.00238c-9.34799,0-16.97406-7.60535-16.99985-16.95349l-1.55191-562.00114c-.01254-4.52039,1.74915-8.78339,4.96039-12.00354,3.2113-3.22015,7.46936-4.99361,11.98984-4.99361H423.67523m0-1H57.63184c-9.89993,0-17.97763,8.09991-17.95023,17.99992l1.55191,562.00117c.02725,9.88361,8.12204,17.95068,17.99985,17.95068l.04977-.00012,366.04352-1.00226c9.89996-.0271,17.97754-8.14935,17.95007-18.04926l-1.5517-560.90022c-.0274-9.90001-8.14972-17.99992-18.0498-17.99992h0Z"/></g><g><path class="di" d="M56.48431,654.55408c-9.62451,0-17.47461-7.83008-17.49951-17.45508l-1.44873-563.43262c-.01172-4.6543,1.80225-9.04297,5.10889-12.35791s7.69043-5.14062,12.34473-5.14062H421.80365c9.64941,0,17.52148,7.85107,17.54688,17.50146l1.44824,562.4043c.02441,9.64941-7.80566,17.52051-17.45508,17.54492l-366.85938,.93555Z"/><path class="fu" d="M421.80377,56.66808c9.37518,0,17.02216,7.6273,17.04633,17.00246l1.44855,562.40485c.0116,4.521-1.75116,8.78906-4.96368,12.01807-3.21259,3.22906-7.47156,5.01373-11.99249,5.02527l-366.85791,.93567c-9.34976,0-16.97586-7.60669-16.99985-16.9566l-1.4487-563.43233c-.0116-4.52046,1.75085-8.78346,4.96286-12.00369,3.21191-3.22023,7.47037-4.99368,11.99084-4.99368H421.80377m0-1H54.98972c-9.89999,0-17.97916,8.09999-17.9537,17.99992l1.4487,563.43228c.02542,9.88489,8.12039,17.9541,17.99985,17.9541l.04639-.00006,366.81409-.93561c9.89996-.02527,17.97906-8.14594,17.95361-18.0459l-1.44855-562.40482c-.02551-9.89993-8.14636-17.99992-18.04633-17.99992h0Z"/></g><g><path class="cu" d="M53.73578,657.49353c-9.62598,0-17.47656-7.83203-17.5-17.45898l-1.34521-564.86279c-.01123-4.65479,1.8042-9.04346,5.11133-12.3584s7.69141-5.14062,12.3457-5.14062H419.93256c9.64941,0,17.51953,7.85107,17.54297,17.50098l1.34473,563.90869c.01074,4.65527-1.80469,9.04883-5.11133,12.37207-3.30762,3.32227-7.69238,5.15918-12.34668,5.16992l-367.62646,.86914Z"/><path class="ff" d="M419.93225,58.17262c9.37512,0,17.02051,7.62723,17.04291,17.0023l1.34534,563.90936c.01074,4.52094-1.75287,8.7887-4.96594,12.01715-3.21313,3.22839-7.47253,5.01227-11.99347,5.02295l-367.62524,.86908c-9.35153,0-16.97769-7.60815-16.99991-16.95984l-1.34546-564.86348c-.01077-4.52054,1.75262-8.78354,4.96524-12.00377,3.21262-3.22031,7.47137-4.99376,11.99191-4.99376H419.93225m0-1H52.34763c-9.89999,0-17.98068,8.09999-17.95715,17.99992l1.34546,564.86346c.0235,9.88611,8.1188,17.95746,17.99991,17.95746l.04285-.00006,367.58478-.86902c9.8999-.02338,17.98059-8.14252,17.95703-18.04248l-1.34534-563.90936c-.02362-9.89993-8.14294-17.99992-18.04291-17.99992h0Z"/></g><g><path class="cx" d="M50.98529,660.43201c-9.62744,0-17.47705-7.83301-17.49805-17.46094l-1.24219-566.29492c-.01025-4.6543,1.80566-9.04297,5.11328-12.3584,3.30762-3.31494,7.69287-5.14062,12.34717-5.14062H418.06049c9.64941,0,17.51855,7.85107,17.54004,17.50098l1.24219,565.41406c.00977,4.6543-1.80566,9.04785-5.11426,12.37012-3.30762,3.32227-7.69336,5.1582-12.34766,5.16797l-368.39551,.80176Z"/><path class="fd" d="M418.06073,59.6772c9.37506,0,17.01898,7.62715,17.03955,17.00215l1.242,565.41385c.00989,4.52094-1.75452,8.78839-4.96826,12.01624-3.21368,3.22778-7.47339,5.01086-11.99432,5.02069l-368.39267,.80237c-9.35324,0-16.9794-7.60962-17-16.96307l-1.2421-566.29445c-.00992-4.52054,1.75424-8.78362,4.96756-12.00392,3.21323-3.22032,7.47244-4.99385,11.99298-4.99385H418.06073m0-1H49.70547c-9.89999,0-17.98221,8.09999-17.96054,17.99992l1.2421,566.29456c.02173,9.88727,8.11731,17.96082,17.99997,17.96082l.03949-.00006,368.35541-.80231c9.8999-.02155,17.98212-8.13916,17.96039-18.03918l-1.242-565.41382c-.02173-9.89993-8.13959-17.99992-18.03955-17.99992h0Z"/></g><g><path class="db" d="M48.23871,663.37146c-9.63037,0-17.48096-7.83496-17.50049-17.46484l-1.13867-567.72607c-.00928-4.6543,1.80762-9.04297,5.11572-12.3584,3.30859-3.31494,7.69385-5.14062,12.34814-5.14062H416.18939c9.64941,0,17.5166,7.85107,17.53613,17.50098l1.13867,566.91846c.01855,9.64941-7.81543,17.51562-17.46484,17.53516l-369.12598,.73535h-.03467Z"/><path class="eu" d="M416.18921,61.18175c9.375,0,17.0174,7.627,17.03613,17.00192l1.13873,566.91838c.00903,4.521-1.75616,8.78809-4.97046,12.01532-3.21442,3.22723-7.47443,5.00952-11.9953,5.01855l-369.16025,.73553c-9.35501,0-16.98108-7.61096-16.99985-16.96613l-1.13876-567.72566c-.00909-4.52054,1.75592-8.78369,4.96982-12.004,3.21393-3.22038,7.47348-4.99393,11.99408-4.99393H416.18921m0-1H47.06335c-9.89999,0-17.98376,8.09999-17.9639,17.99992l1.13876,567.72568c.01981,9.88855,8.11554,17.96411,17.99985,17.96411h.03622l369.12598-.73553c9.89996-.01978,17.98364-8.13586,17.96381-18.03589l-1.13873-566.91837c-.01984-9.89993-8.13611-17.99992-18.03613-17.99992h0Z"/></g><g><path class="dc" d="M45.48969,666.31091c-9.63232,0-17.48291-7.83594-17.50049-17.46875l-1.03516-569.15674c-.0083-4.6543,1.80908-9.04346,5.11816-12.3584s7.69482-5.14062,12.34912-5.14062H414.31732c9.65039,0,17.51562,7.85107,17.5332,17.50098l1.03516,568.42236c.01855,9.64941-7.81836,17.51367-17.46777,17.53223l-369.89697,.66895h-.03125Z"/><path class="fe" d="M414.31775,62.68625c9.37482,0,17.01562,7.627,17.03278,17.00185l1.03522,568.42287c.00824,4.52087-1.75775,8.78772-4.97266,12.01434-3.2149,3.22668-7.47534,5.00818-11.99634,5.0163l-369.92752,.66888c-9.35669,0-16.98285-7.61237-16.99985-16.96924l-1.03537-569.15685c-.00824-4.52061,1.7576-8.78384,4.97214-12.00423s7.47446-4.99393,11.99509-4.99393H414.31775m0-1H44.42123c-9.89999,0-17.98523,8.10001-17.96722,18l1.03537,569.15683c.01797,9.88904,8.11465,17.96741,17.99985,17.96741h.03284l369.89658-.66888c9.89996-.01782,17.98523-8.13251,17.9671-18.03253l-1.03522-568.42282c-.01807-9.89999-8.13281-18-18.03278-18h0Z"/></g><g><path class="da" d="M42.73969,669.24939c-9.6333,0-17.4834-7.83789-17.49902-17.47168l-.93213-570.58789c-.00781-4.6543,1.81104-9.04297,5.12061-12.3584,3.30957-3.31494,7.6958-5.14062,12.3501-5.14062H412.44623c9.65039,0,17.51367,7.85107,17.5293,17.50098l.93164,569.92773c.00781,4.6543-1.81055,9.0459-5.12012,12.36719-3.31055,3.32031-7.69629,5.15332-12.35059,5.16113l-370.66748,.60156h-.0293Z"/><path class="fg" d="M412.44629,64.19083c9.37476,0,17.01404,7.62685,17.02936,17.00154l.93195,569.92744c.00739,4.521-1.7594,8.78748-4.97498,12.01355-3.21552,3.22601-7.4762,5.00671-11.99719,5.01398l-370.69501,.60217c-9.35855,0-16.98462-7.61377-16.99994-16.97235l-.93198-570.58803c-.00739-4.52069,1.75922-8.78384,4.97437-12.0043,3.21524-3.22046,7.47556-4.994,11.99625-4.994H412.44629m0-1H41.77911c-9.89999,0-17.98679,8.09993-17.97061,17.99992l.93198,570.588c.01614,9.89032,8.1131,17.97076,17.99994,17.97076h.02945l370.66714-.60217c9.90002-.01599,17.98682-8.12915,17.97058-18.02911l-.93195-569.92747c-.01617-9.89999-8.12946-17.99992-18.02936-17.99992h0Z"/></g><g><path class="dj" d="M39.99261,672.18884c-9.63623,0-17.4873-7.83984-17.50098-17.47559l-.82861-572.01855c-.00684-4.65479,1.8125-9.04395,5.12305-12.35889s7.69678-5.14062,12.35107-5.14062H410.57513c9.65039,0,17.51172,7.85059,17.52539,17.50049l.8291,571.43262c.01367,9.64941-7.82617,17.51074-17.47559,17.52539l-371.43701,.53516h-.02441Z"/><path class="ep" d="M410.57477,65.69534c9.37457,0,17.01245,7.62685,17.02606,17.00146l.82855,571.43198c.00653,4.52094-1.76111,8.78711-4.97723,12.01257-3.21619,3.22546-7.47717,5.00537-11.99817,5.01184l-371.4624,.53528c-9.36023,0-16.98636-7.61511-17-16.97552l-.82852-572.01907c-.00653-4.52069,1.76093-8.784,4.97678-12.00446,3.21576-3.22046,7.47644-4.99408,11.99713-4.99408H410.57477m0-1H39.13696c-9.89999,0-17.98822,8.10001-17.97391,18l.82852,572.01907c.01437,9.89154,8.11151,17.97412,18,17.97412l.02609-.00006,371.43777-.53528c9.89996-.01422,17.98822-8.12592,17.97394-18.02588l-.82855-571.43198c-.0144-9.89999-8.1261-18-18.02606-18h0Z"/></g><g><path class="dl" d="M37.24213,675.12732c-9.63672,0-17.4873-7.84082-17.49951-17.47852l-.7251-573.44922c-.00586-4.65479,1.81445-9.04395,5.12549-12.35889s7.69775-5.14062,12.35205-5.14062H408.70306c9.65039,0,17.51074,7.85059,17.52246,17.50049l.72559,572.93652c.00586,4.6543-1.81445,9.0459-5.125,12.36523-3.31152,3.31934-7.69824,5.15039-12.35352,5.15625l-372.20752,.46875h-.02295Z"/><path class="ec" d="M408.70319,67.19992c9.37451,0,17.01099,7.62669,17.02283,17.00116l.7251,572.93655c.00568,4.521-1.7627,8.7868-4.97949,12.01166-3.21667,3.22485-7.47809,5.00403-11.99902,5.0097l-372.22998,.46844c-9.36191,0-16.98807-7.61652-16.99991-16.97852l-.7251-573.45032c-.00568-4.52077,1.76248-8.784,4.97894-12.00453s7.47754-4.99416,11.99829-4.99416H408.70319m0-1H36.49484c-9.89999,0-17.98975,8.09993-17.97723,17.99992l.7251,573.4503c.01251,9.8927,8.1098,17.97736,17.99991,17.97736l.02286-.00006,372.2084-.46844c9.89996-.01245,17.98969-8.12262,17.97723-18.02258l-.7251-572.93657c-.01257-9.89999-8.1228-17.99992-18.02283-17.99992h0Z"/></g><g><path class="dn" d="M34.49359,678.06677c-9.63916,0-17.48975-7.8418-17.5-17.48145l-.62158-574.88135c-.00488-4.6543,1.81592-9.04346,5.12744-12.3584,3.31152-3.31543,7.69873-5.14111,12.35352-5.14111H406.83197c9.64941,0,17.50879,7.85059,17.51953,17.50049l.62109,574.44189c.01074,9.64844-7.83105,17.50684-17.48145,17.51758l-372.97852,.40234h-.01904Z"/><path class="em" d="M406.83173,68.70444c9.37445,0,17.00928,7.62662,17.01947,17.00108l.62158,574.44102c.00488,4.521-1.76428,8.78644-4.98169,12.01074-3.21729,3.2243-7.479,5.00269-11.99994,5.00751l-372.99734,.40167c-9.36371,0-16.98987-7.61798-17-16.98175l-.62161-574.88135c-.00485-4.52078,1.76413-8.78416,4.9812-12.0047,3.21716-3.22061,7.47855-4.99423,11.99933-4.99423H406.83173m0-1H33.85272c-9.89999,0-17.99124,8.10001-17.98053,18l.62161,574.88138c.01068,9.89398,8.10822,17.98065,18,17.98065h.01944l372.979-.40167c9.8999-.01056,17.99121-8.11938,17.98053-18.01935l-.62158-574.44101c-.01068-9.89999-8.11951-18-18.01947-18h0Z"/></g><g><path class="df" d="M31.74506,681.00525c-9.64111,0-17.4917-7.84277-17.5-17.4834l-.51807-576.31348c-.00439-4.6543,1.81738-9.04346,5.12939-12.3584,3.31201-3.31543,7.69971-5.14111,12.354-5.14111H404.9599c9.65039,0,17.50781,7.85059,17.5166,17.50049l.51758,575.94629c.00391,4.6543-1.81738,9.04492-5.12988,12.3623-3.31152,3.31836-7.69922,5.14844-12.35352,5.15234l-373.75,.33496h-.01562Z"/><path class="eq" d="M404.96027,70.20895c9.37427,0,17.00769,7.62654,17.01611,17.00093l.51807,575.94563c.00409,4.52087-1.76587,8.78613-4.98383,12.00983-3.2179,3.22369-7.47992,5.00122-12.00092,5.00531l-373.76492,.33472c-9.3653,0-16.99146-7.61932-16.99994-16.9848l-.51807-576.31253c-.00406-4.52077,1.76584-8.78416,4.98355-12.00478,3.21768-3.22061,7.47952-4.99431,12.00031-4.99431H404.96027m0-1H31.21063c-9.89999,0-17.99269,8.10001-17.98386,18l.51807,576.31253c.00894,9.8952,8.10663,17.98389,17.99994,17.98389h.01624l373.7496-.33472c9.90002-.00885,17.99268-8.11609,17.98383-18.01605l-.51807-575.94565c-.00891-9.89999-8.11621-18-18.01611-18h0Z"/></g><g><path class="de" d="M28.99603,683.9447c-9.64258,0-17.49316-7.84473-17.5-17.4873l-.41455-577.74414c-.00342-4.6543,1.81885-9.04346,5.13184-12.35889,3.31299-3.31494,7.70068-5.14062,12.35498-5.14062H403.08881c9.64941,0,17.50586,7.85059,17.5127,17.50049l.41504,577.44922c.00684,9.65039-7.83789,17.50586-17.4873,17.5127l-374.521,.26855h-.01221Z"/><path class="ej" d="M403.08868,71.71353c9.37415,0,17.00616,7.62646,17.01294,17.0007l.41455,577.45007c.00665,9.3739-7.61401,17.00555-16.98779,17.01221l-374.53253,.26776c-9.3671,0-16.99324-7.62067-16.99992-16.98773l-.41455-577.7437c-.00322-4.52084,1.76738-8.78432,4.98576-12.00493,3.21832-3.22069,7.48047-4.99438,12.00131-4.99438H403.08868m0-1H28.56845c-9.89999,0-17.99414,8.10001-17.98708,18l.41455,577.74368c.00706,9.89569,8.1057,17.98712,17.99995,17.98712l.01297-.00006,374.5202-.26776c9.90002-.00708,17.9942-8.11285,17.98712-18.01288l-.41455-577.4501c-.00714-9.89999-8.11292-18-18.01294-18h0Z"/></g><g><path class="dk" d="M26.24603,686.88318c-9.64355,0-17.49365-7.84668-17.49902-17.49023l-.31104-579.1748c-.00244-4.65479,1.8208-9.04395,5.13428-12.35889,3.31348-3.31543,7.70166-5.14111,12.35596-5.14111H401.21674c9.65039,0,17.50488,7.85059,17.50977,17.50049l.31152,578.95361c.00488,9.65039-7.8418,17.50488-17.49023,17.50977l-375.2915,.20117h-.01025Z"/><path class="ek" d="M401.21716,73.21805c9.37415,0,17.00464,7.62639,17.00964,17.00055l.31097,578.95468c.00244,4.52094-1.7691,8.78546-4.98816,12.008-3.21912,3.2226-7.48169,4.9986-12.00269,5.0011l-375.30002,.20081c-9.36877,0-16.99493-7.62207-16.99994-16.99084l-.31099-579.17482c-.00247-4.52084,1.769-8.7843,4.98799-12.00508,3.21899-3.22069,7.48154-4.99438,12.00238-4.99438H401.21716m0-1H25.92636c-9.89999,0-17.99568,8.10001-17.99037,18l.31099,579.17484c.00531,9.89697,8.104,17.9903,17.99988,17.9903h.00974l375.29083-.20081c9.90002-.00531,17.99567-8.10968,17.99036-18.00964l-.31097-578.95468c-.00531-9.89999-8.10962-18-18.00964-18h0Z"/></g><g><path class="ds" d="M23.49896,689.82263c-9.64697,0-17.49756-7.84766-17.50098-17.49414l-.20752-580.60596c-.00146-4.65479,1.82275-9.04395,5.13672-12.35889,3.31396-3.31543,7.70264-5.14111,12.35693-5.14111H399.34564c9.64941,0,17.50293,7.85059,17.50684,17.5l.20703,580.45947c.00195,4.6543-1.82227,9.04395-5.13672,12.36035-3.31445,3.31738-7.70215,5.14453-12.35645,5.14551l-376.06201,.13477h-.00537Z"/><path class="eo" d="M399.34576,74.72263c9.37396,0,17.00299,7.62631,17.00635,17.0004l.20734,580.45917c.00159,4.52087-1.77063,8.78516-4.9903,12.00714-3.21973,3.22198-7.48267,4.99731-12.00366,4.9989l-376.0676,.13391c-9.37045,0-16.99654-7.62341-16.99992-16.9939l-.20731-580.606c-.00162-4.52084,1.77061-8.78438,4.99016-12.00516,3.2196-3.22069,7.48245-4.99446,12.00339-4.99446H399.34576m0-1H23.28421c-9.89999,0-17.99709,8.10001-17.99355,18l.20731,580.60599c.00354,9.89813,8.10243,17.99353,17.99989,17.99353h.0065l376.06155-.13391c9.89996-.00354,17.99707-8.10645,17.99353-18.00647l-.20734-580.45914c-.00354-9.89999-8.10645-18-18.00635-18h0Z"/></g><g><path class="dq" d="M20.74896,692.76111c-9.64746,0-17.49805-7.84961-17.5-17.49707l-.10352-582.03711c-.00098-4.65479,1.82422-9.04346,5.13867-12.35889,3.31494-3.31543,7.70361-5.14111,12.35791-5.14111H397.47455c9.64941,0,17.50098,7.85059,17.50293,17.5l.10352,581.96387c.00098,4.65527-1.82422,9.04395-5.13867,12.36035-3.31445,3.31543-7.7041,5.14258-12.3584,5.14258l-376.83154,.06738h-.00342Z"/><path class="ei" d="M397.47418,76.22714c9.37402,0,17.00153,7.62624,17.00317,17.00017l.1037,581.96379c.00085,4.521-1.77228,8.78491-4.99249,12.00629s-7.48352,4.99585-12.00446,4.9967l-376.83514,.06696c-9.37216,0-16.99831-7.62476-17-16.99689l-.10362-582.03717c-.00084-4.521,1.77216-8.78453,4.99239-12.00529,3.22023-3.22078,7.48346-4.99455,12.00439-4.99455H397.47418m0-1H20.64212c-9.90001,0-17.99855,8.10001-17.99678,18l.10362,582.03714c.00177,9.89941,8.10081,17.99677,17.99997,17.99677h.00327l376.83209-.06696c9.89996-.00177,17.99854-8.10315,17.99677-18.00317l-.1037-581.96378c-.00171-9.89999-8.10327-18-18.00317-18h0Z"/></g><g><rect class="dr" x=".49994" y="77.23181" width="412.60254" height="618.46777" rx="17.5" ry="17.5"/><path class="en" d="M395.60266,77.73166c9.37384,0,17,7.62616,17,17V678.20001c0,9.37378-7.62616,17-17,17H18c-9.37384,0-17-7.62622-17-17V94.73166c0-9.37384,7.62616-17,17-17H395.60266m0-1H18c-9.90001,0-18,8.10008-18,18V678.20001c0,9.89996,8.09999,18,18,18H395.60266c9.90002,0,18-8.10004,18-18V94.73166c0-9.89992-8.09998-18-18-18h0Z"/></g></g></g><g id="bc"><g id="bd"><rect class="e`" x="54.27364" y="170.30696" width="305.05538" height="78.60323" rx="7.72222" ry="7.72222"/><rect class="do" x="54.27364" y="170.30696" width="305.05538" height="78.60323" rx="7.72222" ry="7.72222"/></g><g id="bf"><rect class="e`" x="74.8602" y="200.25105" width="175.92151" height="20.58656" rx="3.91667" ry="3.91667"/><rect class="en" x="256.39622" y="200.25105" width="20.58656" height="20.58656" rx="3.91667" ry="3.91667"/><rect class="ed" x="282.59729" y="200.25105" width="20.58656" height="20.58656" rx="3.91667" ry="3.91667"/><rect class="e`" x="308.79837" y="200.25105" width="20.58656" height="20.58656" rx="3.91667" ry="3.91667"/></g></g><g id="bg"><g id="bh"><rect class="e`" x="54.27364" y="284.46879" width="305.05538" height="78.60323" rx="7.72222" ry="7.72222"/><rect class="dt" x="54.27364" y="284.46879" width="305.05538" height="78.60323" rx="7.72222" ry="7.72222"/></g><g id="bj"><rect class="e`" x="74.8602" y="314.41288" width="175.92151" height="20.58656" rx="3.91667" ry="3.91667"/><rect class="en" x="256.39622" y="314.41288" width="20.58656" height="20.58656" rx="3.91667" ry="3.91667"/><rect class="ed" x="282.59729" y="314.41288" width="20.58656" height="20.58656" rx="3.91667" ry="3.91667"/><rect class="e`" x="308.79837" y="314.41288" width="20.58656" height="20.58656" rx="3.91667" ry="3.91667"/></g></g><g id="bk"><g id="bl"><rect class="e`" x="54.27364" y="398.63062" width="305.05538" height="78.60323" rx="7.72222" ry="7.72222"/><rect class="dp" x="54.27364" y="398.63062" width="305.05538" height="78.60323" rx="7.72222" ry="7.72222"/></g><g id="bn"><rect class="e`" x="74.8602" y="428.57471" width="175.92151" height="20.58656" rx="3.91667" ry="3.91667"/><rect class="en" x="256.39622" y="428.57471" width="20.58656" height="20.58656" rx="3.91667" ry="3.91667"/><rect class="ed" x="282.59729" y="428.57471" width="20.58656" height="20.58656" rx="3.91667" ry="3.91667"/><rect class="e`" x="308.79837" y="428.57471" width="20.58656" height="20.58656" rx="3.91667" ry="3.91667"/></g></g><g id="bo"><g id="bp"><rect class="e`" x="54.27364" y="512.79245" width="305.05538" height="78.60323" rx="7.72222" ry="7.72222"/><rect class="du" x="54.27364" y="512.79245" width="305.05538" height="78.60323" rx="7.72222" ry="7.72222"/></g><g id="br"><rect class="e`" x="74.8602" y="542.73653" width="175.92151" height="20.58656" rx="3.91667" ry="3.91667"/><rect class="en" x="256.39622" y="542.73653" width="20.58656" height="20.58656" rx="3.91667" ry="3.91667"/><rect class="ed" x="282.59729" y="542.73653" width="20.58656" height="20.58656" rx="3.91667" ry="3.91667"/><rect class="e`" x="308.79837" y="542.73653" width="20.58656" height="20.58656" rx="3.91667" ry="3.91667"/></g></g></g></svg>