<?xml version="1.0" encoding="UTF-8"?><svg id="a" xmlns="http://www.w3.org/2000/svg" xmlns:xlink="http://www.w3.org/1999/xlink" viewBox="0 0 894 894"><defs><style>.c{fill:url(#b);}.d,.e{fill:#32ab4f;}.f{fill:#5bbc72;}.g{fill:#46b361;}.e{stroke:#32ab4f;stroke-miterlimit:10;}</style><linearGradient id="b" x1="0" y1="447" x2="894" y2="447" gradientTransform="matrix(1, 0, 0, 1, 0, 0)" gradientUnits="userSpaceOnUse"><stop offset="0" stop-color="#be1622"/><stop offset="1" stop-color="#e94e1b"/></linearGradient></defs><path class="c" d="M831.16,41c12.04,0,21.84,9.8,21.84,21.84V831.16c0,12.04-9.8,21.84-21.84,21.84H62.84c-12.04,0-21.84-9.8-21.84-21.84V62.84c0-12.04,9.8-21.84,21.84-21.84H831.16m0-41H62.84C28.13,0,0,28.13,0,62.84V831.16c0,34.7,28.13,62.84,62.84,62.84H831.16c34.7,0,62.84-28.13,62.84-62.84V62.84c0-34.7-28.13-62.84-62.84-62.84h0Z"/><path class="d" d="M787.8,121c5.3,0,11.2,6.6,11.2,16.06v152.07c0,10.17-7.02,17.74-14.36,19.88H129.36c-7.34-2.14-14.36-9.7-14.36-19.88V137.06c0-9.46,5.9-16.06,11.2-16.06H787.8m0-30H126.2c-22.75,0-41.2,20.62-41.2,46.06v152.07c0,25.44,18.45,46.06,41.2,49.88H787.8c22.75-3.82,41.2-24.44,41.2-49.88V137.06c0-25.44-18.45-46.06-41.2-46.06h0Z"/><rect class="e" x="140.51" y="233.85" width="105.87" height="15.76" rx="7.88" ry="7.88" transform="translate(501.17 275.88) rotate(135)"/><rect class="e" x="140.51" y="169.85" width="105.87" height="15.76" rx="7.88" ry="7.88" transform="translate(182.34 -84.73) rotate(45)"/><polygon class="f" points="257.6 735.4 190.71 771.22 191.14 699.59 257.6 663.34 257.6 735.4"/><polygon class="d" points="257.6 663.34 191.14 699.59 124.68 662.9 191.57 626.22 257.6 663.34"/><polygon class="g" points="191.14 699.59 190.71 771.22 123.38 735.84 124.68 662.9 191.14 699.59"/><polygon class="f" points="757.38 740.06 623.32 811.85 624.18 668.26 757.38 595.61 757.38 740.06"/><polygon class="d" points="757.38 595.61 624.18 668.26 490.98 594.74 625.05 521.22 757.38 595.61"/><polygon class="g" points="624.18 668.26 623.32 811.85 488.38 740.92 490.98 594.74 624.18 668.26"/><polygon class="f" points="456.38 593.96 370.16 640.13 370.72 547.79 456.38 501.06 456.38 593.96"/><polygon class="d" points="456.38 501.06 370.72 547.79 285.05 500.51 371.27 453.22 456.38 501.06"/><polygon class="g" points="370.72 547.79 370.16 640.13 283.38 594.51 285.05 500.51 370.72 547.79"/></svg>